<?xml version="1.0" encoding="utf-8"?>
<!-- Generator: Adobe Illustrator 25.0.0, SVG Export Plug-In . SVG Version: 6.00 Build 0)  -->
<svg version="1.1" id="Layer_1" xmlns="http://www.w3.org/2000/svg" xmlns:xlink="http://www.w3.org/1999/xlink" x="0px" y="0px"
	 viewBox="0 0 512 512" style="enable-background:new 0 0 512 512;" xml:space="preserve">
<style type="text/css">
	.st0{fill:#05AFFE;}
	.st1{fill:#002A64;}
	.st2{fill:#0090FF;}
</style>
<path class="st0" d="M256,156.3L256,156.3L256,156.3L256,156.3z"/>
<g>
	<g>
		<path class="st1" d="M84.02,396.13c0-123.34,0-120.2,0-242.52c-8.41,0-16.72,0-24.02,0c0,130.64,0,135.9,0,267.55
			c130.64,0,261.36,0,392,0c0-8.41,0-16.72,0-24.02C329.68,396.13,207.36,396.13,84.02,396.13z"/>
		<path class="st2" d="M348.53,119.25c-10.44-6.28-20.88-12.56-31.32-18.85c29.29-15.71,57.46-31.32,85.74-48.04
			c-1.02,33.44-1.02,64.76-2.12,98.3c-10.44-6.28-20.88-12.56-31.32-18.85c-1.02,2.12-2.12,3.14-3.14,5.27
			c-10.44,16.72-19.86,33.44-30.3,50.17c-1.02,2.12-3.14,3.14-5.27,2.12c-30.3-7.3-61.71-15.71-92.02-23c-3.14-1.02-5.27,0-7.3,2.12
			c-29.29,29.29-57.46,57.46-86.75,86.75c-1.02,1.02-2.12,2.12-3.14,3.14c-6.28-6.28-11.46-11.46-17.74-17.74
			c0,0,1.02-1.02,2.12-2.12c32.43-32.43,64.76-64.76,98.3-98.3c2.12-2.12,4.16-2.12,6.28-2.12c29.29,7.3,59.59,14.6,88.88,21.99
			c2.12,1.02,4.16,0,5.27-2.12C332.82,145.21,341.14,132.74,348.53,119.25z"/>
		<path class="st1" d="M378.83,165.07c8.41,5.27,15.71,9.42,23,13.58c1.02,1.02,2.12,3.14,2.12,4.16c0,27.16,0,53.31,0,80.47
			c0,34.46,0,69.01,0,103.47c0,1.02,0,3.14,0,4.16c-16.72,0-32.43,0-49.15,0c0-1.02,0-3.14,0-4.16c0-52.29,0-105.6,0-157.8
			c0-2.12,1.02-4.16,2.12-6.28C363.12,190.29,370.42,178.75,378.83,165.07z"/>
		<path class="st1" d="M255.49,371c-16.72,0-32.43,0-49.15,0c0-1.02,0-3.14,0-4.16c0-44.99,0-90.91,0-135.9
			c0-3.14,1.02-5.27,3.14-6.28c10.44-10.44,20.88-20.88,31.32-31.32c1.02-1.02,3.14-2.12,5.27-1.02c3.14,1.02,7.3,2.12,10.44,3.14
			C255.49,253.95,255.49,312.52,255.49,371z"/>
		<path class="st1" d="M329.68,372.11c-16.72,0-32.43,0-49.15,0c0-56.45,0-113.91,0-170.36c16.72,4.16,32.43,8.41,49.15,12.56
			C329.68,266.51,329.68,318.8,329.68,372.11z"/>
		<path class="st1" d="M133.17,371c0-29.29,0-57.47,0-87.77c3.14,3.14,5.27,6.28,7.3,9.42c14.6-14.6,27.16-27.16,41.85-41.85
			c0,40.74,0,80.47,0,120.2C165.6,371,149.89,371,133.17,371z"/>
	</g>
</g>
</svg>
