<?xml version="1.0" encoding="utf-8"?>
<!-- Generator: Adobe Illustrator 25.0.0, SVG Export Plug-In . SVG Version: 6.00 Build 0)  -->
<svg version="1.1" id="Layer_1" xmlns="http://www.w3.org/2000/svg" xmlns:xlink="http://www.w3.org/1999/xlink" x="0px" y="0px"
	 viewBox="0 0 512 512" style="enable-background:new 0 0 512 512;" xml:space="preserve">
<style type="text/css">
	.st0{fill:none;}
	.st1{fill:#0084FF;}
	.st2{fill:#383A3A;}
</style>
<g>
	<path class="st0" d="M256,78.2c-98.2,0-177.8,79.6-177.8,177.8S157.8,433.8,256,433.8S433.8,354.2,433.8,256S354.2,78.2,256,78.2z
		 M236.2,236.2h39.5c32.7,0,59.3,26.5,59.3,59.3c0,32.7-26.5,59.3-59.3,59.3v19.8c0,10.9-8.8,19.8-19.8,19.8
		c-10.9,0-19.8-8.8-19.8-19.8v-19.8h-39.5c-10.9,0-19.8-8.8-19.8-19.8c0-10.9,8.8-19.8,19.8-19.8h79c10.9,0,19.8-8.8,19.8-19.8
		c0-10.9-8.8-19.8-19.8-19.8h-39.5c-32.7,0-59.3-26.5-59.3-59.3c0-32.7,26.5-59.3,59.3-59.3v-19.8c0-10.9,8.8-19.8,19.8-19.8
		c10.9,0,19.8,8.8,19.8,19.8V157h39.5c10.9,0,19.8,8.8,19.8,19.8c0,10.9-8.8,19.8-19.8,19.8h-79c-10.9,0-19.8,8.8-19.8,19.8
		C216.5,227.4,225.3,236.2,236.2,236.2z"/>
	<path class="st1" d="M236.2,196.7h79c10.9,0,19.8-8.8,19.8-19.8c0-10.9-8.8-19.8-19.8-19.8h-39.5v-19.8c0-10.9-8.8-19.8-19.8-19.8
		c-10.9,0-19.8,8.8-19.8,19.8v19.8c-32.7,0-59.3,26.5-59.3,59.3c0,32.7,26.5,59.3,59.3,59.3h39.5c10.9,0,19.8,8.8,19.8,19.8
		c0,10.9-8.8,19.8-19.8,19.8h-79c-10.9,0-19.8,8.8-19.8,19.8c0,10.9,8.8,19.8,19.8,19.8h39.5v19.8c0,10.9,8.8,19.8,19.8,19.8
		c10.9,0,19.8-8.8,19.8-19.8v-19.8c32.7,0,59.3-26.5,59.3-59.3c0-32.7-26.5-59.3-59.3-59.3h-39.5c-10.9,0-19.8-8.8-19.8-19.8
		C216.5,205.6,225.3,196.7,236.2,196.7z"/>
	<path class="st2" d="M256,38.7C136,38.7,38.7,136,38.7,256S136,473.3,256,473.3S473.3,376,473.3,256S376,38.7,256,38.7z
		 M256,441.88c-102.65,0-185.88-83.23-185.88-185.88S153.35,70.12,256,70.12S441.88,153.35,441.88,256S358.65,441.88,256,441.88z"/>
</g>
</svg>
