<?xml version="1.0" encoding="utf-8"?>
<!-- Generator: Adobe Illustrator 25.0.0, SVG Export Plug-In . SVG Version: 6.00 Build 0)  -->
<svg version="1.1" id="Layer_1" xmlns="http://www.w3.org/2000/svg" xmlns:xlink="http://www.w3.org/1999/xlink" x="0px" y="0px"
	 viewBox="0 0 512 512" style="enable-background:new 0 0 512 512;" xml:space="preserve">
<style type="text/css">
	.st0{fill:#05AFFE;}
	.st1{fill:#54595D;}
	.st2{fill:#0080FF;}
</style>
<path class="st0" d="M256,156.3L256,156.3L256,156.3L256,156.3z"/>
<g>
	<g>
		<g>
			<path class="st1" d="M256,43.1c-117.4,0-212.9,95.5-212.9,213c0,59.9,24.8,114.1,64.8,152.8c7.4,7.2,15.4,13.9,23.9,20
				c35,25.3,78,40.2,124.3,40.2s89.3-14.9,124.3-40.2c8.4-6.1,16.4-12.8,23.9-20c39.9-38.7,64.8-92.9,64.8-152.8
				C468.9,138.6,373.4,43.1,256,43.1z M398.3,377.6c-6.1,7.1-12.7,13.8-19.9,20c-32.9,28.4-75.7,45.6-122.4,45.6
				s-89.5-17.2-122.4-45.6c-7.1-6.2-13.8-12.8-19.9-20c-28-32.7-45-75.2-45-121.6c0-103.3,84-187.3,187.3-187.3
				s187.3,84,187.3,187.3C443.3,302.4,426.3,344.9,398.3,377.6z"/>
		</g>
	</g>
	<path class="st2" d="M306.8,287.6c-0.1,0-0.1,0-0.2-0.1c0.1,0,0.1-0.1,0.2-0.1c25-16.5,41.5-44.9,41.5-77
		c0-50.9-41.4-92.3-92.3-92.3s-92.3,41.4-92.3,92.3c0,32.1,16.5,60.5,41.5,77c0.1,0,0.1,0.1,0.2,0.1c-0.1,0-0.1,0-0.2,0.1
		c-34.2,12.5-62.5,37.1-79.7,68.7c1.7,2.3,3.6,4.5,5.4,6.7c3.7,4.4,7.7,8.5,11.8,12.5c19.1-41.7,60.6-71.1,109-72.7
		c1.4-0.1,2.8-0.1,4.2-0.1c1.4,0,2.8,0,4.2,0.1c48.4,1.6,89.9,31,109,72.7c4.2-3.9,8.1-8.1,11.8-12.5c1.9-2.2,3.7-4.4,5.4-6.7
		C369.3,324.7,341,300.1,306.8,287.6z M260,278.5c-1.3,0.1-2.6,0.1-4,0.1s-2.7,0-4-0.1c-35.8-2.1-64.2-31.8-64.2-68.1
		c0-37.6,30.6-68.2,68.2-68.2s68.2,30.6,68.2,68.2C324.2,246.7,295.7,276.4,260,278.5z"/>
</g>
</svg>
