<?xml version="1.0" encoding="utf-8"?>
<!-- Generator: Adobe Illustrator 25.0.0, SVG Export Plug-In . SVG Version: 6.00 Build 0)  -->
<svg version="1.1" id="Layer_1" xmlns="http://www.w3.org/2000/svg" xmlns:xlink="http://www.w3.org/1999/xlink" x="0px" y="0px"
	 viewBox="0 0 512 512" style="enable-background:new 0 0 512 512;" xml:space="preserve">
<style type="text/css">
	.st0{fill:#05AFFE;}
	.st1{fill:#0084FF;}
	.st2{fill:#002A64;}
	.st3{fill:#FFFFFF;}
</style>
<path class="st0" d="M256,156.3L256,156.3L256,156.3L256,156.3z"/>
<g>
	<g>
		<path class="st1" d="M256,468.9c-56.89,0-110.37-22.14-150.56-62.34S43.1,312.89,43.1,256s22.14-110.37,62.34-150.56
			S199.11,43.1,256,43.1s110.37,22.14,150.56,62.34S468.9,199.11,468.9,256s-22.14,110.37-62.34,150.56S312.89,468.9,256,468.9z
			 M256,55.36C145.38,55.36,55.36,145.38,55.36,256S145.38,456.64,256,456.64S456.64,366.62,456.64,256S366.62,55.36,256,55.36z"/>
	</g>
	<g>
		<g>
			<path class="st2" d="M429.3,255.06c0.26,47.95-18.99,91.38-50.07,122.89c-31.17,31.59-74.52,51.27-122.37,51.52
				c-39.51,0.17-76.22-12.86-105.51-35.26c-0.17-0.17-0.34-0.17-0.43-0.34c-0.17,0-0.17-0.17-0.34-0.34c-0.17,0-0.34-0.17-0.43-0.34
				c-3.24-2.47-6.39-5.19-9.45-8.01c-2.98-2.64-5.71-5.37-8.52-8.09v-0.17c-0.17-0.17-0.17-0.17-0.34-0.17v-0.17
				c-1.7-1.53-3.07-3.07-4.51-4.6c-0.17-0.17-0.34-0.34-0.43-0.43c-27.34-30.32-44.03-70.51-44.2-114.71
				c-0.26-47.77,18.99-91.21,50.07-122.89c31.17-31.42,74.51-51.1,122.37-51.35c47.77-0.26,91.38,18.99,122.89,50.07
				C409.46,164.03,429.13,207.2,429.3,255.06z"/>
			<g>
				<g>
					<path class="st3" d="M311.69,274.99l33.55,104.75l-76.39-53.99l0.26-0.26l21.8-37.56l-122.29,92.06l8.01-28.61
						C211.8,301.05,293.3,238.03,293.3,238.03c-69.24,1.96-113.86,23.33-113.86,23.33l-67.02-49.48l108.24-0.6l34.49-104.83
						l34.49,104.49l109.43-0.26L311.69,274.99z"/>
				</g>
				<path class="st1" d="M168.46,380.59c0,0,35.09-62.68,124.84-142.56c0,0-80.31,29.12-113.86,79.45L168.46,380.59z"/>
			</g>
		</g>
	</g>
</g>
</svg>
