<?xml version="1.0" encoding="utf-8"?>
<!-- Generator: Adobe Illustrator 25.0.0, SVG Export Plug-In . SVG Version: 6.00 Build 0)  -->
<svg version="1.1" id="Layer_1" xmlns="http://www.w3.org/2000/svg" xmlns:xlink="http://www.w3.org/1999/xlink" x="0px" y="0px"
	 viewBox="0 0 512 512" style="enable-background:new 0 0 512 512;" xml:space="preserve">
<style type="text/css">
	.st0{fill:#05AFFE;}
	.st1{fill:#002A64;}
	.st2{fill:#0090FF;}
</style>
<path class="st0" d="M256,156.3L256,156.3L256,156.3L256,156.3z"/>
<g>
	<path class="st1" d="M247.83,467.29c-28.93-0.92-57.89-1.21-86.76-3.05c-13.49-0.86-27.35-3.1-40.05-7.55
		c-39.88-13.96-63.88-42.64-70.88-84.23c-3.2-18.99-4.55-38.46-4.77-57.74c-0.48-41.29,0.02-82.61,0.72-123.9
		c0.33-19.35,2.26-38.74,9.33-56.99c13.55-35.02,38.62-57.49,75.15-66.73c22.57-5.7,45.71-6.31,68.79-6.56
		c36.59-0.39,73.19-0.21,109.79-0.22c10.15-0.01,17.24,6.67,17.11,15.94c-0.12,9.03-7.16,15.44-17.1,15.47
		c-36.11,0.09-72.23-0.33-108.32,0.42c-19.13,0.4-38.45,1.39-57.26,4.61c-35.51,6.09-58.72,30.45-62.97,66.23
		c-2.81,23.66-3.66,47.64-3.98,71.5c-0.45,32.84-0.03,65.7,0.95,98.53c0.42,13.89,1.75,28.08,5.23,41.48
		c8.02,30.86,28.78,49.33,60,55.68c22.76,4.63,45.92,4.69,69,4.72c35.29,0.04,70.59-0.12,105.87-0.97
		c12.93-0.31,26.06-1.7,38.65-4.55c32.41-7.36,52.52-28.1,58.3-60.67c3.36-18.94,4.35-38.44,4.76-57.72
		c0.77-36.41,0.31-72.85,0.45-109.28c0.04-11.84,10.78-19.6,21.29-15.39c6.3,2.53,10.11,7.4,10.04,14.23
		c-0.56,50.4-0.65,100.81-2.26,151.18c-0.76,23.89-6.68,46.94-21.5,66.75c-19.04,25.45-44.41,39.78-75.77,44.12
		C317.14,467.37,282.48,466.22,247.83,467.29z"/>
	<path class="st2" d="M284.75,304.44c-22.94-1.39-40.52-11.82-50.57-33.68c-5.91-12.85-16.17-18.67-28.83-16.06
		c-8.25,1.7-13.78,6.84-17.41,14.28c-9.7,19.84-19.41,39.67-29.18,59.48c-3.84,7.79-10.92,11.52-18.16,9.82
		c-10.25-2.41-15.22-13.08-10.41-22.99c10.06-20.74,20.09-41.51,30.55-62.06c8.78-17.26,23.01-27.42,42.29-30.06
		c25.41-3.48,48.31,9.29,58.94,32.88c3.7,8.21,9.17,14.17,18.23,16.05c11.88,2.47,22.21-2.64,27.78-13.85
		c9.68-19.48,19.18-39.06,28.83-58.56c1.14-2.31,2.4-4.68,4.11-6.56c5.2-5.69,13.58-6.52,20-2.27c6.58,4.35,8.93,12.63,5.28,20.23
		c-8.16,16.97-16.54,33.85-24.85,50.75c-2.22,4.52-4.29,9.12-6.77,13.49C323.74,294.38,307.01,303.54,284.75,304.44z"/>
	<path class="st1" d="M466.82,96.64c0.09,28.71-23.07,52.16-51.82,52.46c-28.6,0.3-52.63-23.6-52.58-52.29
		c0.04-28.64,23.5-52.05,52.17-52.09C443.35,44.67,466.73,67.92,466.82,96.64z M435.38,96.79c-0.04-11.36-9.51-20.73-20.88-20.64
		c-11.2,0.09-20.38,9.26-20.52,20.5c-0.15,11.32,9.26,20.85,20.63,20.91C425.95,117.62,435.42,108.14,435.38,96.79z"/>
</g>
</svg>
