<?xml version="1.0" encoding="utf-8"?>
<!-- Generator: Adobe Illustrator 25.0.0, SVG Export Plug-In . SVG Version: 6.00 Build 0)  -->
<svg version="1.1" id="Layer_1" xmlns="http://www.w3.org/2000/svg" xmlns:xlink="http://www.w3.org/1999/xlink" x="0px" y="0px"
	 viewBox="0 0 120 120" style="enable-background:new 0 0 120 120;" xml:space="preserve">
<style type="text/css">
	.st0{display:none;}
	.st1{display:inline;fill:#234261;}
	.st2{display:inline;}
	.st3{fill:url(#SVGID_1_);}
	.st4{fill:url(#SVGID_2_);}
	.st5{fill:url(#SVGID_3_);}
	.st6{fill:url(#SVGID_4_);}
	.st7{fill:#FFFFFF;}
</style>
<g class="st0">
	<path class="st1" d="M248.7,110.6h-377.4c-1.7,0-3-1.3-3-3v-95c0-1.7,1.3-3,3-3h377.4c1.7,0,3,1.3,3,3v95
		C251.7,109.3,250.3,110.6,248.7,110.6z"/>
	<g class="st2">
		
			<linearGradient id="SVGID_1_" gradientUnits="userSpaceOnUse" x1="-651.8313" y1="344.2767" x2="-645.6309" y2="344.2767" gradientTransform="matrix(5.3545 0 0 -5.3545 3387.9814 1888.0348)">
			<stop  offset="0" style="stop-color:#63BE6B"/>
			<stop  offset="0.506" style="stop-color:#5BBC6A"/>
			<stop  offset="1" style="stop-color:#4AB96A"/>
		</linearGradient>
		<path class="st3" d="M-69,48.5l-31.3-17.9c-0.4-0.3-0.8-0.2-1.3,0c-0.4,0.3-0.6,0.6-0.6,1.1c0,0,0,1.6,0,4.4l22.7,22.7L-69,48.5z"
			/>
		
			<linearGradient id="SVGID_2_" gradientUnits="userSpaceOnUse" x1="-651.8264" y1="341.6164" x2="-647.5636" y2="341.6164" gradientTransform="matrix(5.3545 0 0 -5.3545 3387.9814 1888.0348)">
			<stop  offset="0" style="stop-color:#3EC6F2"/>
			<stop  offset="1" style="stop-color:#45AFE3"/>
		</linearGradient>
		<path class="st4" d="M-102.3,36.1c0,9.8,0.2,33.6,0.2,45.5l22.7-22.7L-102.3,36.1z"/>
		
			<linearGradient id="SVGID_3_" gradientUnits="userSpaceOnUse" x1="-647.5696" y1="341.4857" x2="-642.1627" y2="341.4857" gradientTransform="matrix(5.3545 0 0 -5.3545 3387.9814 1888.0348)">
			<stop  offset="0" style="stop-color:#FAA51A"/>
			<stop  offset="0.387" style="stop-color:#FAB716"/>
			<stop  offset="0.741" style="stop-color:#FAC412"/>
			<stop  offset="1" style="stop-color:#FAC80F"/>
		</linearGradient>
		<path class="st5" d="M-51.1,58.8L-69,48.5l-10.4,10.4l11.7,11.7l16.6-9.7c0.4-0.3,0.6-0.7,0.6-1.1C-50.4,59.4-50.7,59-51.1,58.8z"
			/>
		
			<linearGradient id="SVGID_4_" gradientUnits="userSpaceOnUse" x1="-651.7923" y1="338.7006" x2="-645.3792" y2="338.7006" gradientTransform="matrix(5.3545 0 0 -5.3545 3387.9814 1888.0348)">
			<stop  offset="0" style="stop-color:#EC3B50"/>
			<stop  offset="1" style="stop-color:#E7515B"/>
		</linearGradient>
		<path class="st6" d="M-102,81.6c0,4.2,0,7,0,7c0,0.5,0.3,0.8,0.6,1.1c0.4,0.3,0.8,0.3,1.3,0l32.4-18.9L-79.4,59L-102,81.6z"/>
	</g>
	<g class="st2">
		<path class="st7" d="M2.2,50.9c-0.9-2.3-2.3-4.1-4.3-5.4c-2-1.3-4.3-2-7.1-2c-2.4,0-4.5,0.6-6.4,1.7c-1.9,1.1-3.4,2.7-4.5,4.8
			s-1.7,4.5-1.7,7.2s0.6,5.2,1.7,7.2c1.1,2.1,2.6,3.6,4.5,4.7s4.1,1.7,6.4,1.7s4.4-0.5,6.2-1.5s3.3-2.5,4.5-4.4
			c1.1-1.9,1.7-4.1,1.8-6.7H-10v-1.6H5.4v1.3c-0.1,2.8-0.8,5.3-2,7.6c-1.3,2.2-3,4-5.2,5.2C-4,72-6.4,72.6-9.1,72.6
			c-2.8,0-5.3-0.6-7.5-2s-4-3.1-5.2-5.5c-1.3-2.3-1.9-5-1.9-7.9c0-3,0.6-5.6,1.9-8c1.3-2.3,3-4.1,5.2-5.5c2.2-1.3,4.7-2,7.5-2
			c3.2,0,6,0.8,8.4,2.4c2.4,1.6,4.1,3.9,5.2,6.7L2.2,50.9L2.2,50.9z"/>
		<path class="st7" d="M15.6,71.1c-1.7-1-3.1-2.4-4.1-4.2c-1-1.8-1.5-3.9-1.5-6.4c0-2.4,0.5-4.5,1.5-6.3s2.4-3.2,4.1-4.2
			c1.8-1,3.7-1.4,5.9-1.4s4.1,0.5,5.9,1.4c1.7,1,3.1,2.3,4.1,4.1S33,58,33,60.5c0,2.4-0.5,4.6-1.5,6.4s-2.4,3.2-4.1,4.2
			c-1.8,1-3.7,1.5-5.9,1.5C19.3,72.5,17.4,72,15.6,71.1z M26.2,69.7c1.5-0.8,2.7-1.9,3.5-3.5c0.9-1.5,1.3-3.4,1.3-5.7
			c0-2.2-0.4-4.1-1.3-5.7c-0.9-1.5-2.1-2.7-3.5-3.5c-1.5-0.8-3-1.1-4.7-1.1s-3.3,0.4-4.7,1.1c-1.4,0.8-2.6,1.9-3.5,3.5
			c-0.9,1.5-1.3,3.4-1.3,5.7s0.4,4.2,1.3,5.7s2,2.7,3.5,3.5c1.4,0.8,3,1.1,4.7,1.1C23.2,70.8,24.8,70.4,26.2,69.7z"/>
		<path class="st7" d="M43.3,71.1c-1.7-1-3.1-2.4-4.1-4.2c-1-1.8-1.5-3.9-1.5-6.4c0-2.4,0.5-4.5,1.5-6.3s2.4-3.2,4.1-4.2
			c1.8-1,3.7-1.4,5.9-1.4s4.1,0.5,5.9,1.4c1.7,1,3.1,2.3,4.1,4.1s1.5,3.9,1.5,6.4c0,2.4-0.5,4.6-1.5,6.4s-2.4,3.2-4.1,4.2
			c-1.8,1-3.7,1.5-5.9,1.5S45.1,72,43.3,71.1z M53.9,69.7c1.5-0.8,2.7-1.9,3.5-3.5c0.9-1.5,1.3-3.4,1.3-5.7c0-2.2-0.4-4.1-1.3-5.7
			c-0.9-1.5-2.1-2.7-3.5-3.5c-1.5-0.8-3-1.1-4.7-1.1s-3.3,0.4-4.7,1.1c-1.4,0.8-2.6,1.9-3.5,3.5c-0.9,1.5-1.3,3.4-1.3,5.7
			s0.4,4.2,1.3,5.7s2,2.7,3.5,3.5c1.4,0.8,3,1.1,4.7,1.1C50.9,70.8,52.5,70.4,53.9,69.7z"/>
		<path class="st7" d="M82.9,50.3c1.7,1.2,2.9,2.7,3.6,4.6v-6.1h1.9v24c0,2.1-0.5,4-1.4,5.6s-2.2,2.9-3.8,3.7s-3.4,1.3-5.4,1.3
			c-2.9,0-5.3-0.7-7.3-2.1c-1.9-1.4-3.2-3.3-3.8-5.7h1.9c0.6,1.9,1.6,3.3,3.2,4.4s3.5,1.7,5.9,1.7c1.6,0,3.1-0.4,4.4-1.1
			s2.4-1.8,3.1-3.1c0.8-1.4,1.1-3,1.1-4.8v-6.8c-0.7,1.9-1.9,3.4-3.6,4.6s-3.8,1.8-6.2,1.8c-2.2,0-4.1-0.5-5.8-1.5s-3-2.4-4-4.2
			s-1.4-3.9-1.4-6.3s0.5-4.5,1.4-6.3c1-1.8,2.3-3.2,4-4.2s3.6-1.5,5.8-1.5C79.1,48.6,81.2,49.2,82.9,50.3z M85.3,55.1
			c-0.8-1.6-2-2.8-3.5-3.6s-3.1-1.3-4.9-1.3c-1.9,0-3.5,0.4-5,1.2c-1.4,0.8-2.5,2-3.3,3.5s-1.2,3.4-1.2,5.5s0.4,3.9,1.2,5.5
			c0.8,1.5,1.9,2.7,3.4,3.6c1.4,0.8,3.1,1.2,5,1.2c1.8,0,3.4-0.4,4.9-1.3c1.5-0.8,2.6-2,3.5-3.6c0.8-1.6,1.2-3.4,1.2-5.4
			C86.5,58.5,86.1,56.7,85.3,55.1z"/>
		<path class="st7" d="M97.4,40.4v31.8h-1.9V40.4H97.4L97.4,40.4z"/>
		<path class="st7" d="M125.4,61.3h-20.1c0.1,2.1,0.5,3.8,1.4,5.3c0.9,1.4,2,2.5,3.4,3.2s2.9,1.1,4.6,1.1c2.3,0,4.2-0.6,5.8-1.7
			c1.5-1.1,2.5-2.7,2.9-4.6h2c-0.5,2.4-1.6,4.3-3.5,5.8s-4.3,2.2-7.2,2.2c-2.2,0-4.1-0.5-5.8-1.5s-3.1-2.4-4-4.2
			c-1-1.8-1.5-3.9-1.5-6.4c0-2.4,0.5-4.6,1.4-6.4c1-1.8,2.3-3.2,4-4.1c1.7-1,3.7-1.4,5.9-1.4c2.2,0,4.2,0.5,5.8,1.4
			c1.6,1,2.9,2.2,3.8,3.8s1.3,3.3,1.3,5.1C125.5,60,125.5,60.7,125.4,61.3z M122.5,54.4c-0.8-1.4-1.9-2.5-3.3-3.2s-2.9-1.1-4.5-1.1
			s-3.1,0.3-4.5,1.1c-1.4,0.7-2.5,1.8-3.4,3.2s-1.3,3.2-1.4,5.2h18.3C123.7,57.6,123.3,55.9,122.5,54.4z"/>
		<path class="st7" d="M159.2,56.7c-1.7,1.5-4.1,2.2-7.4,2.2h-6.4v13.2h-1.9V42h8.4c3.3,0,5.8,0.8,7.4,2.3s2.4,3.6,2.4,6.2
			C161.7,53.2,160.9,55.3,159.2,56.7z M159.8,50.5c0-2.2-0.6-3.9-1.9-5c-1.3-1.2-3.3-1.7-6.1-1.7h-6.4v13.5h6.4
			C157.1,57.2,159.8,55,159.8,50.5z"/>
		<path class="st7" d="M168.8,40.4v31.8h-1.9V40.4H168.8L168.8,40.4z"/>
		<path class="st7" d="M176.1,54.2c1-1.8,2.3-3.2,4-4.2s3.6-1.5,5.8-1.5c2.5,0,4.5,0.6,6.3,1.8c1.7,1.2,2.9,2.7,3.6,4.6v-6.1h1.9
			v23.3h-1.9V66c-0.7,1.9-1.9,3.4-3.6,4.7c-1.7,1.2-3.8,1.8-6.2,1.8c-2.2,0-4.1-0.5-5.8-1.5c-1.7-1-3-2.4-4-4.2
			c-1-1.8-1.4-3.9-1.4-6.3S175.2,56,176.1,54.2z M194.5,55.1c-0.8-1.6-2-2.8-3.5-3.6s-3.1-1.3-4.9-1.3c-1.9,0-3.5,0.4-5,1.2
			c-1.4,0.8-2.5,2-3.3,3.5s-1.2,3.4-1.2,5.5s0.4,3.9,1.2,5.5c0.8,1.5,1.9,2.7,3.4,3.6c1.4,0.8,3.1,1.2,5,1.2c1.8,0,3.4-0.4,4.9-1.3
			c1.5-0.8,2.6-2,3.5-3.6c0.8-1.6,1.2-3.4,1.2-5.4C195.8,58.5,195.4,56.7,194.5,55.1z"/>
		<path class="st7" d="M223,48.9l-13.6,34.3h-2l4.3-10.9L201.9,49h2.1l8.8,21.2L221,49L223,48.9L223,48.9z"/>
	</g>
</g>
<path class="st7" d="M80.5,8.6c-5,0.3-11.4,3.6-15.1,7.8c-3.3,3.9-6.2,10.1-5.4,15.9c5.9,0.5,11.5-2.9,15.3-7.2
	C78.9,20.8,81.2,14.8,80.5,8.6z M88,63.4c-0.2-13,10.6-19.3,11.2-19.7c-6-8.9-15.6-10.1-18.9-10.2c-7.8-0.8-15.6,4.7-19.7,4.7
	s-10.4-4.7-17.1-4.6c-8.8,0.2-16.7,5-21.1,12.8c-9.1,15.9-2.4,39,6.5,51.9c4.4,6.2,9.6,13.3,16.1,13c6.7-0.3,8.9-4.1,16.9-4.1
	c7.8,0,10.1,4.1,16.9,4.1c7-0.2,11.4-6.2,15.8-12.5c5-7.2,7-14.1,7.2-14.6C101.7,84.1,88.3,78.9,88,63.4z"/>
</svg>
