<?xml version="1.0" encoding="utf-8"?>
<!-- Generator: Adobe Illustrator 25.0.0, SVG Export Plug-In . SVG Version: 6.00 Build 0)  -->
<svg version="1.1" id="Layer_1" xmlns="http://www.w3.org/2000/svg" xmlns:xlink="http://www.w3.org/1999/xlink" x="0px" y="0px"
	 viewBox="0 0 512 512" style="enable-background:new 0 0 512 512;" xml:space="preserve">
<style type="text/css">
	.st0{fill:#FFFFFF;}
	.st1{fill:#CCCACA;}
	.st2{fill:#0090FF;}
</style>
<g>
	<g>
		<g>
			<path class="st0" d="M402.92,404.63H109.09c-0.95,0-1.72-0.77-1.72-1.72V109.08c0-0.95,0.77-1.72,1.72-1.72h293.83
				c0.95,0,1.72,0.77,1.72,1.72v293.83C404.64,403.86,403.87,404.63,402.92,404.63z"/>
			<path class="st1" d="M383.52,407.71H128.48c-13.34,0-24.19-10.85-24.19-24.19V128.48c0-13.34,10.85-24.19,24.19-24.19h255.03
				c13.34,0,24.19,10.85,24.19,24.19v255.03C407.71,396.85,396.86,407.71,383.52,407.71z M128.48,110.43
				c-9.95,0-18.05,8.1-18.05,18.05v255.03c0,9.96,8.1,18.05,18.05,18.05h255.03c9.95,0,18.05-8.1,18.05-18.05V128.48
				c0-9.96-8.1-18.05-18.05-18.05H128.48z"/>
		</g>
	</g>
	<g>
		<g>
			<path class="st2" d="M248.87,258.9h14.25c2.09,0,4,0.85,5.37,2.23c1.38,1.38,2.23,3.28,2.23,5.37v30.04
				c0,2.09-0.85,3.99-2.23,5.37c-1.38,1.38-3.28,2.23-5.37,2.23h-14.25c-2.09,0-3.99-0.85-5.37-2.23c-1.38-1.38-2.23-3.28-2.23-5.37
				v-30.02c0-2.09,0.85-4,2.23-5.37C244.88,259.76,246.78,258.9,248.87,258.9L248.87,258.9z M170.52,201.92h49.43v-14.15
				c0-2.13,0.86-4.06,2.28-5.48c1.4-1.41,3.34-2.28,5.48-2.28h56.59c2.13,0,4.06,0.86,5.48,2.28c1.4,1.4,2.28,3.34,2.28,5.48v14.17
				h49.43c3.01,0,5.74,1.22,7.74,3.22c1.98,1.98,3.22,4.72,3.22,7.74v113.96c0,3.01-1.22,5.74-3.22,7.74
				c-1.98,1.98-4.72,3.22-7.74,3.22H170.52c-3.01,0-5.74-1.22-7.74-3.22c-1.98-2.01-3.2-4.74-3.2-7.75V212.87
				c0-3.01,1.22-5.74,3.22-7.74C164.77,203.16,167.5,201.92,170.52,201.92L170.52,201.92z M284.29,186.8H227.7
				c-0.27,0-0.5,0.11-0.67,0.28c-0.17,0.17-0.28,0.41-0.28,0.67v14.01h58.5v-14.01c0-0.27-0.11-0.5-0.28-0.67
				C284.79,186.9,284.55,186.8,284.29,186.8L284.29,186.8z M166.36,267.31c25,7.19,43.48,10.28,68.5,11.44v6.79
				c-25-1.15-43.48-4.16-68.5-11.2v52.47c0,1.15,0.47,2.18,1.22,2.93s1.79,1.22,2.93,1.22h170.94c1.15,0,2.18-0.47,2.93-1.22
				c0.75-0.75,1.22-1.79,1.22-2.93v-52.46c-24.97,7.03-42.34,10.04-67.29,11.19v-6.79c24.97-1.18,42.34-4.27,67.29-11.44v-54.44
				c0-1.15-0.47-2.18-1.22-2.93c-0.75-0.75-1.79-1.22-2.93-1.22H170.52c-1.15,0-2.18,0.47-2.93,1.22s-1.22,1.79-1.22,2.93V267.31
				L166.36,267.31z M263.12,265.69h-14.25c-0.22,0-0.42,0.09-0.56,0.24c-0.14,0.14-0.24,0.35-0.24,0.56v30.04
				c0,0.22,0.09,0.42,0.24,0.56c0.14,0.16,0.35,0.24,0.56,0.24h14.25c0.22,0,0.42-0.09,0.56-0.24c0.14-0.14,0.24-0.35,0.24-0.56
				v-30.02c0-0.22-0.09-0.42-0.24-0.56C263.54,265.78,263.34,265.69,263.12,265.69L263.12,265.69z"/>
		</g>
	</g>
</g>
</svg>
