<?xml version="1.0" encoding="utf-8"?>
<!-- Generator: Adobe Illustrator 25.0.0, SVG Export Plug-In . SVG Version: 6.00 Build 0)  -->
<svg version="1.1" id="Layer_1" xmlns="http://www.w3.org/2000/svg" xmlns:xlink="http://www.w3.org/1999/xlink" x="0px" y="0px"
	 viewBox="0 0 512 512" style="enable-background:new 0 0 512 512;" xml:space="preserve">
<style type="text/css">
	.st0{fill:#0084FF;}
	.st1{fill:#234261;}
</style>
<g>
	<g>
		<g>
			<path class="st0" d="M285.2,241.2h-58.3c-7.7,0-14,6.3-14,14v40.4c0,7.7,6.3,14,14,14h58.3c7.7,0,14-6.3,14-14v-40.4
				C299.2,247.4,292.9,241.2,285.2,241.2z M286.4,295.7c0,0.7-0.5,1.3-1.3,1.3h-58.3c-0.7,0-1.3-0.5-1.3-1.3v-40.4
				c0-0.7,0.5-1.3,1.3-1.3h58.3c0.7,0,1.3,0.5,1.3,1.3V295.7z"/>
		</g>
		<g>
			<path class="st1" d="M425.2,182v51.3c0,6.9-3.4,13-8.7,16.8c-2.1,1.4-4.5,2.5-7.1,3.1l-5.6,1.3l-83.3,19.3v-13.1l86.1-19.9
				c3.5-0.8,6-3.9,6-7.5V182c0-4.3-3.5-7.8-7.8-7.8H107.3c-4.3,0-7.8,3.5-7.8,7.8v51.3c0,3.6,2.4,6.8,6,7.5l86,19.9v13l-84-19.4
				l-4.9-1.1c-2.9-0.7-5.6-2-7.9-3.7c-4.9-3.8-8-9.7-8-16.3v-51.3c0-11.3,9.2-20.5,20.5-20.5h297.6
				C416.1,161.3,425.3,170.5,425.2,182z"/>
		</g>
		<g>
			<path class="st1" d="M416.5,264.2v111.6c0,12.3-10.1,22.3-22.3,22.3H117.1c-12.3,0-22.3-10.1-22.3-22.3V263.9
				c1.6,0.6,3.3,1.2,5,1.6l7.8,1.8v108.4c0,5.3,4.2,9.5,9.5,9.5h277.2c5.3,0,9.5-4.3,9.5-9.5V267.5l8.5-2
				C413.8,265.2,415.2,264.8,416.5,264.2z"/>
		</g>
		<g>
			<g>
				<path class="st0" d="M312.8,150h-5c-2.1,0-3.8-1.7-3.8-3.8v-15.4c0-2.3-1.9-4.2-4.2-4.2h-87.4c-2.3,0-4.2,1.9-4.2,4.2v15.4
					c0,2.1-1.7,3.8-3.8,3.8h-5c-2.1,0-3.8-1.7-3.8-3.8v-15.4c0-9.3,7.5-16.9,16.9-16.9h87.4c9.3,0,16.9,7.6,16.9,16.9v15.4
					C316.7,148.3,315,150,312.8,150z"/>
			</g>
		</g>
	</g>
</g>
</svg>
