<?xml version="1.0" encoding="utf-8"?>
<!-- Generator: Adobe Illustrator 25.0.0, SVG Export Plug-In . SVG Version: 6.00 Build 0)  -->
<svg version="1.1" id="Layer_1" xmlns="http://www.w3.org/2000/svg" xmlns:xlink="http://www.w3.org/1999/xlink" x="0px" y="0px"
	 viewBox="0 0 512 512" style="enable-background:new 0 0 512 512;" xml:space="preserve">
<style type="text/css">
	.st0{fill:#FFFFFF;}
	.st1{fill:#CCCACA;}
	.st2{fill:#0090FF;}
</style>
<g>
	<g>
		<g>
			<path class="st0" d="M403.04,404.76H108.98c-0.95,0-1.72-0.77-1.72-1.72V108.97c0-0.95,0.77-1.72,1.72-1.72h294.06
				c0.95,0,1.72,0.77,1.72,1.72v294.06C404.76,403.99,403.99,404.76,403.04,404.76z"/>
			<path class="st1" d="M383.62,407.83H128.39c-13.35,0-24.21-10.86-24.21-24.21V128.38c0-13.35,10.86-24.21,24.21-24.21h255.23
				c13.35,0,24.21,10.86,24.21,24.21v255.23C407.83,396.96,396.98,407.83,383.62,407.83z M128.39,110.32
				c-9.96,0-18.07,8.1-18.07,18.07v255.23c0,9.96,8.11,18.07,18.07,18.07h255.23c9.96,0,18.07-8.1,18.07-18.07V128.38
				c0-9.96-8.11-18.07-18.07-18.07L128.39,110.32L128.39,110.32z"/>
		</g>
	</g>
	<g>
		<path class="st2" d="M339.42,337.65c-3.47-16.97-11.39-32.53-22.9-44.97c-9.8-10.59-21.39-18.24-34.45-22.73l-3.64-1.25l3.3-1.97
			c15.84-9.43,25.68-26.69,25.68-45.05c0-28.88-23.5-52.38-52.38-52.38c-28.88,0-52.38,23.5-52.38,52.38
			c0,18.69,10.1,36.11,26.37,45.45l3.33,1.91l-3.62,1.31c-12.59,4.55-23.78,12.06-33.28,22.32c-11.51,12.45-19.43,28-22.9,44.97
			c-0.25,1.24,0.06,2.52,0.86,3.5c0.8,0.98,1.98,1.54,3.24,1.54h0.12c1.97,0,3.7-1.43,4.11-3.39c7.83-37.8,39.41-65.24,75.1-65.24
			c35.69,0,67.27,27.44,75.1,65.24c0.41,1.96,2.13,3.39,4.11,3.39h0.12c1.26,0,2.44-0.56,3.24-1.54
			C339.36,340.17,339.67,338.9,339.42,337.65z M255.05,265.6c-24.21,0-43.92-19.7-43.92-43.92s19.7-43.92,43.92-43.92
			c24.21,0,43.92,19.7,43.92,43.92S279.26,265.6,255.05,265.6z"/>
		<path d="M236.98,323.13l15.91,15.59c1.66,1.63,4.32,1.63,5.99,0l16.14-15.79c1.41-1.38,1.69-3.54,0.69-5.24l-16.11-27.2
			c-1.66-2.81-5.74-2.8-7.38,0.03l-15.94,27.4C235.29,319.61,235.58,321.76,236.98,323.13z"/>
	</g>
</g>
</svg>
