<?xml version="1.0" encoding="utf-8"?>
<!-- Generator: Adobe Illustrator 25.0.0, SVG Export Plug-In . SVG Version: 6.00 Build 0)  -->
<svg version="1.1" id="Layer_1" xmlns="http://www.w3.org/2000/svg" xmlns:xlink="http://www.w3.org/1999/xlink" x="0px" y="0px"
	 viewBox="0 0 512 512" style="enable-background:new 0 0 512 512;" xml:space="preserve">
<style type="text/css">
	.st0{fill:#F3FCFF;}
	.st1{fill:#0092FF;}
	.st2{fill:#002A64;}
	.st3{fill:#FFFFFF;}
	.st4{fill:#0090FF;}
</style>
<g>
	<g>
		<path class="st0" d="M402.16,255.94c0,40.44-16.38,76.98-42.78,103.38c-26.4,26.53-63.07,42.91-103.38,42.91
			c-33.29,0-64.24-11.18-88.82-30.17c-0.13-0.13-0.26-0.13-0.39-0.26c-0.13,0-0.13-0.13-0.26-0.26c-0.13,0-0.26-0.13-0.39-0.26
			c-2.73-2.08-5.33-4.42-7.93-6.76c-2.47-2.21-4.81-4.55-7.15-6.89v-0.13c-0.13-0.13-0.13-0.13-0.26-0.13v-0.13
			c-1.43-1.3-2.6-2.6-3.77-3.9c-0.13-0.13-0.26-0.26-0.39-0.39c-22.89-25.75-36.8-59.69-36.8-97.01
			c0-40.31,16.38-76.85,42.78-103.38c26.4-26.4,63.07-42.78,103.38-42.78c40.31,0,76.98,16.38,103.38,42.78
			C385.78,179.08,402.16,215.62,402.16,255.94z"/>
		<path class="st1" d="M256,407.71c-32.8,0-65.06-10.79-91.01-30.43l0,0l-2.6-2c-2.42-1.81-5.13-4.24-7.84-6.69
			c-2.07-1.84-4.05-3.78-6.02-5.74l0,0l-3.2-3.29c-0.76-0.78-1.48-1.57-2.19-2.35c-25.22-28.33-38.78-64.07-38.78-101.27
			c0-40.4,15.76-78.48,44.38-107.24c28.63-28.63,66.71-44.4,107.25-44.4s78.63,15.76,107.25,44.39
			c28.63,28.77,44.38,66.86,44.38,107.25c0,40.54-15.76,78.64-44.38,107.25C334.69,391.89,296.6,407.71,256,407.71z M170.14,367.39
			l0.91,0.8c23.71,18.26,54.07,28.57,84.95,28.57c37.66,0,73-14.67,99.5-41.3c26.56-26.56,41.18-61.9,41.18-99.52
			c0-37.47-14.62-72.82-41.18-99.51c-26.55-26.55-61.89-41.18-99.5-41.18s-72.95,14.62-99.5,41.18
			c-26.55,26.68-41.18,62.02-41.18,99.5c0,34.52,12.58,67.68,35.42,93.37c0.95,1.02,1.69,1.84,2.41,2.58h0.01l1.25,1.22
			c0.03,0.03,0.06,0.05,0.09,0.08l2.05,2.17c1.74,1.73,3.49,3.44,5.33,5.07c2.15,1.94,4.28,3.86,6.49,5.63l0,0L170.14,367.39z"/>
	</g>
	<path class="st2" d="M375.99,255.95c0,33.2-13.45,63.2-35.12,84.87c-21.67,21.78-51.78,35.23-84.87,35.23
		c-27.33,0-52.74-9.18-72.91-24.77c-0.11-0.11-0.21-0.11-0.32-0.21c-0.11,0-0.11-0.11-0.21-0.21c-0.11,0-0.21-0.11-0.32-0.21
		c-2.24-1.71-4.38-3.63-6.51-5.55c-2.03-1.81-3.95-3.74-5.87-5.66v-0.11c-0.11-0.11-0.11-0.11-0.21-0.11v-0.11
		c-1.17-1.07-2.14-2.13-3.1-3.2c-0.11-0.11-0.21-0.21-0.32-0.32c-18.79-21.14-30.21-49-30.21-79.64c0-33.09,13.45-63.09,35.12-84.87
		c21.67-21.67,51.78-35.12,84.87-35.12c33.09,0,63.2,13.45,84.87,35.12C362.54,192.85,375.99,222.85,375.99,255.95z"/>
	<g>
		<g>
			<path class="st3" d="M288.89,266.58l19.5,62.02l-45-32.15l0.13-0.16l12.99-22.14l-72.56,54.08l4.83-16.92
				c20.93-29.67,69.31-66.64,69.31-66.64c-40.94,0.92-67.38,13.46-67.38,13.46l-39.46-29.48h64l20.72-61.87l20.06,61.87l64.72,0.16
				L288.89,266.58z"/>
		</g>
		<path class="st4" d="M203.86,328.6c0,0,20.92-36.94,74.24-83.92c0,0-47.56,16.98-67.56,46.63L203.86,328.6z"/>
	</g>
</g>
</svg>
