<?xml version="1.0" encoding="utf-8"?>
<!-- Generator: Adobe Illustrator 25.0.0, SVG Export Plug-In . SVG Version: 6.00 Build 0)  -->
<svg version="1.1" id="Layer_1" xmlns="http://www.w3.org/2000/svg" xmlns:xlink="http://www.w3.org/1999/xlink" x="0px" y="0px"
	 viewBox="0 0 512 512" style="enable-background:new 0 0 512 512;" xml:space="preserve">
<style type="text/css">
	.st0{fill:#0090FF;}
</style>
<path class="st0" d="M224.58,163.23h125.69c17.35,0,31.42-14.07,31.42-31.42s-14.07-31.42-31.42-31.42h-62.85V68.98
	c0-17.35-14.07-31.42-31.42-31.42s-31.42,14.07-31.42,31.42v31.42c-52.05,0-94.27,42.22-94.27,94.27s42.22,94.27,94.27,94.27h62.85
	c17.35,0,31.42,14.07,31.42,31.42c0,17.35-14.07,31.42-31.42,31.42H161.74c-17.35,0-31.42,14.07-31.42,31.42
	c0,17.35,14.07,31.42,31.42,31.42h62.85v31.42c0,17.35,14.07,31.42,31.42,31.42c17.35,0,31.42-14.07,31.42-31.42V414.6
	c52.05,0,94.27-42.22,94.27-94.27s-42.22-94.27-94.27-94.27h-62.85c-17.35,0-31.42-14.07-31.42-31.42
	C193.15,177.3,207.23,163.23,224.58,163.23z"/>
</svg>
