<?xml version="1.0" encoding="utf-8"?>
<!-- Generator: Adobe Illustrator 25.0.0, SVG Export Plug-In . SVG Version: 6.00 Build 0)  -->
<svg version="1.1" id="Layer_1" xmlns="http://www.w3.org/2000/svg" xmlns:xlink="http://www.w3.org/1999/xlink" x="0px" y="0px"
	 viewBox="0 0 512 512" style="enable-background:new 0 0 512 512;" xml:space="preserve">
<style type="text/css">
	.st0{fill:#BFBFBF;}
</style>
<g>
	<g>
		<path class="st0" d="M419.79,34.96H92.21c-31.63,0-57.26,25.63-57.26,57.26v327.57c0,11.65,3.66,22.63,9.32,31.62l0.33,0.33
			c10.32,15.31,27.96,25.3,47.6,25.3h327.57c20.31,0,37.95-10.32,48.27-26.3c5.66-8.99,8.99-19.64,8.99-30.96V92.21
			C477.04,60.59,451.41,34.96,419.79,34.96z M459.07,419.79c0,21.64-17.64,39.28-39.28,39.28H92.21
			c-21.64,0-38.95-17.64-38.95-39.28V92.21c0-21.64,17.31-39.28,38.95-39.28h327.57c21.64,0,39.28,17.64,39.28,39.28V419.79z"/>
	</g>
	<g>
		<g>
			<path class="st0" d="M256,156.79c-51.6,0-93.54,50.27-93.54,112.52c0,4.66,0.33,9.65,0.67,14.31c0.66,5.33,1.33,10.32,2.66,15.31
				c1,4.33,2,8.66,4,12.99c0.66,3.32,2,6.32,3.33,9.32c0.67,2,1.66,3.99,2.66,5.99c1.66,3.33,3.66,6.66,5.66,9.98
				c0.67,1.33,1.33,2.33,2.33,3.66c1.66,3,3.99,5.66,5.99,8.32c2.33,2.33,4.33,4.66,6.99,6.99c2,2.33,3.66,4,5.66,5.66
				c2,1.66,3.99,3.32,5.99,4.66c1,1,2.33,1.67,3.66,2.67c2,1.33,4.33,2.66,6.66,3.66c4.66,2.67,9.32,4.67,14.31,5.99
				c2.33,1,4.99,1.67,7.32,2c5.33,1,10.32,1.66,15.65,1.66c5.33,0,10.65-0.67,15.65-1.66c2.66-0.33,4.99-1,7.66-2
				c2-0.33,3.66-1,4.99-1.66c2-0.67,3.99-1.67,5.99-2.33c2.66-1.33,5.33-2.99,7.99-4.33c2-1.33,3.66-2.66,5.66-3.99
				s3.99-2.99,5.99-4.66c3.66-2.67,6.99-5.99,9.66-9.32c0.33-0.67,1-1.33,1.66-2c3.33-3.66,5.99-7.32,8.66-11.65
				c0.33-0.33,0.33-0.33,0.33-0.67c2.33-3.33,4.33-6.99,6.33-10.98c1.33-2,2-4,2.66-5.99c1.33-2.99,2.66-5.99,3.33-9.32
				c2-4.33,2.99-8.66,3.99-12.99c1-4.99,2-9.98,2.33-15.31c0.67-4.66,1-9.66,1-14.31C349.88,207.06,307.93,156.79,256,156.79z
				 M256,357.53c-30.29,0-57.59-26.3-65.91-63.91v-0.33c-1.66-7.32-2.66-15.65-2.66-23.97c0-48.27,30.63-87.56,68.58-87.56
				s68.91,39.28,68.91,87.56c0,8.32-1,16.64-2.66,24.3C313.92,331.23,286.63,357.53,256,357.53z"/>
		</g>
		<g>
			<path class="st0" d="M459.07,323.24c-22.97-24.63-55.26-39.61-91.22-39.61h-43.61l-2,9.99c-8.32,37.61-35.62,63.91-66.25,63.91
				c-30.29,0-57.59-26.3-65.91-63.91v-0.33l-2.33-9.66h-43.61c-35.62,0-67.91,14.98-90.88,39.61c-7.32,7.33-13.32,15.65-18.31,24.63
				v71.91c0,11.65,3.66,22.63,9.32,31.62c-0.33-2.33-0.33-4.99-0.33-7.32v-34.96c0-14.98,3.33-29.3,9.32-41.95
				c15.98-34.62,50.6-58.59,90.88-58.59h24.3c0.33,1,0.67,2.33,1.33,3.33c0.66,3.32,2,6.32,3.33,9.32c0.67,2,1.66,3.99,2.66,5.99
				c1.66,3.33,3.66,6.66,5.66,9.98c0.67,1.33,1.33,2.33,2.33,3.66c1.66,3,3.99,5.66,5.99,8.32c2.33,2.33,4.33,4.66,6.99,6.99
				c2,2.33,3.66,4,5.66,5.66c2,1.66,3.99,3.32,5.99,4.66c1,1,2.33,1.67,3.66,2.67c2,1.33,4.33,2.66,6.66,3.66
				c4.66,2.67,9.32,4.67,14.31,5.99c2.33,1,4.99,1.67,7.32,2c5.33,1,10.32,1.66,15.65,1.66c5.33,0,10.65-0.67,15.65-1.66
				c2.66-0.33,4.99-1,7.66-2c2-0.33,3.66-1,4.99-1.66c2-0.67,3.99-1.67,5.99-2.33c2.66-1.33,5.33-2.99,7.99-4.33
				c2-1.33,3.66-2.66,5.66-3.99s3.99-2.99,5.99-4.66c3.33-2.67,6.66-5.99,9.66-9.32c0.33-0.67,1-1.33,1.66-2
				c3.33-3.66,5.99-7.32,8.66-11.65c0.33-0.33,0.33-0.33,0.33-0.67c2.33-3.33,4.33-6.99,6.33-10.98c1.33-2,2-4,2.66-5.99
				c1.33-2.99,2.66-5.99,3.33-9.32c0.66-1,1-2.33,1.33-3.33h23.97c40.61,0,75.24,23.97,91.22,58.59
				c5.99,12.65,9.32,26.97,9.32,41.95v34.96c0,2.33,0,4.32-0.33,6.66c5.66-8.99,8.99-19.64,8.99-30.96v-72.57
				C472.05,338.56,466.06,330.24,459.07,323.24z"/>
		</g>
	</g>
</g>
</svg>
