<?xml version="1.0" encoding="utf-8"?>
<!-- Generator: Adobe Illustrator 25.0.0, SVG Export Plug-In . SVG Version: 6.00 Build 0)  -->
<svg version="1.1" id="Layer_1" xmlns="http://www.w3.org/2000/svg" xmlns:xlink="http://www.w3.org/1999/xlink" x="0px" y="0px"
	 viewBox="0 0 512 512" style="enable-background:new 0 0 512 512;" xml:space="preserve">
<style type="text/css">
	.st0{fill:#FFFFFF;}
</style>
<g>
	<path class="st0" d="M432.88,86.87v337.27c0,16.01-12.98,28.99-28.99,28.99H107.5c-16.01,0-28.99-12.98-28.99-28.99v-48.28
		c0-4.8,3.89-8.68,8.68-8.68h10.19c4.8,0,8.68,3.89,8.68,8.68v41.64c0,4.46,3.62,8.08,8.08,8.08h283.09c4.46,0,8.08-3.62,8.08-8.08
		V93.52c0-4.46-3.62-8.08-8.08-8.08H114.15c-4.46,0-8.08,3.62-8.08,8.08v41.64c0,4.8-3.89,8.68-8.68,8.68H87.19
		c-4.8,0-8.68-3.89-8.68-8.68V86.87c0-16.01,12.98-28.99,28.99-28.99h296.39C419.9,57.88,432.88,70.86,432.88,86.87z"/>
	<path class="st0" d="M87.19,274.19h147.64v73.54l92.2-92.25l-92.2-92.19v77.58H87.19c-4.8,0-8.68,3.89-8.68,8.68v15.95
		C78.51,270.3,82.4,274.19,87.19,274.19z"/>
</g>
</svg>
