<?xml version="1.0" encoding="utf-8"?>
<!-- Generator: Adobe Illustrator 25.0.0, SVG Export Plug-In . SVG Version: 6.00 Build 0)  -->
<svg version="1.1" id="Layer_1" xmlns="http://www.w3.org/2000/svg" xmlns:xlink="http://www.w3.org/1999/xlink" x="0px" y="0px"
	 viewBox="0 0 512 512" style="enable-background:new 0 0 512 512;" xml:space="preserve">
<style type="text/css">
	.st0{fill:#0084FF;}
	.st1{fill:#FFFFFF;}
</style>
<g>
	<g>
		<g>
			<g>
				<g>
					<path class="st0" d="M94.2,385.9c0-15.6,0-27.5,0-38.6c0-8.9-3-13.3-12.6-14.1c-21.5-2.2-34.1-17.1-34.9-38.6
						c0-58.6,0-117.2,0-175.1c0-23.8,15.6-39.3,39.3-39.3c89.8,0,178.8,0,268.6,0c23.8,0,39.3,15.6,39.3,39.3
						c0,57.9,0,115.8,0,174.4c0,25.3-15.6,40.1-40.8,40.1c-62.3,0-123.9,0-186.2,0.7c-6.7,0-14.8,3-20.8,7.5
						C129.1,354.7,113.5,369.6,94.2,385.9z"/>
				</g>
			</g>
			<g>
				<path class="st1" d="M206.9,357c49.7,0,98.7,0,147.6,0c44.5,0,64.6-20.8,64.6-65.2c0-20.8,0-41.6,0-62.3c0-3.7,0-8.2,0-11.8
					c30.4-8.2,46.7,6.7,46,34.1c-1.5,39.3,0,79.4,0,118.7c0,22.3-6,28.2-26.7,34.1c-3.7,0.7-7.5,6.7-8.2,11.1
					c-1.5,7.5-0.7,15.6-0.7,26c-13.3-11.1-23.8-21.5-35.6-30.4c-5.2-3.7-11.8-6.7-18.5-6.7c-43.1-0.7-86-1.5-129.1,0
					C209.9,406,201.8,388.2,206.9,357z"/>
			</g>
		</g>
	</g>
	<path class="st1" d="M238.9,220.5h-88.3c-4.5,0-8.2,5.2-8.2,11.8c0,6.7,3.7,11.8,8.2,11.8h88.3c4.5,0,8.2-5.2,8.2-11.8
		C247,225.6,243.4,220.5,238.9,220.5z"/>
	<path class="st1" d="M276,163.4H150.6c-4.5,0-8.2,5.2-8.2,11.8c0,6.7,3.7,11.8,8.2,11.8H276c4.5,0,8.2-5.2,8.2-11.8
		C284.1,168.5,280.5,163.4,276,163.4z"/>
</g>
</svg>
