<?xml version="1.0" encoding="utf-8"?>
<!-- Generator: Adobe Illustrator 25.0.0, SVG Export Plug-In . SVG Version: 6.00 Build 0)  -->
<svg version="1.1" id="Layer_1" xmlns="http://www.w3.org/2000/svg" xmlns:xlink="http://www.w3.org/1999/xlink" x="0px" y="0px"
	 viewBox="0 0 512 512" style="enable-background:new 0 0 512 512;" xml:space="preserve">
<style type="text/css">
	.st0{fill:#FFFFFF;}
	.st1{fill:#F2F2F2;}
	.st2{fill-rule:evenodd;clip-rule:evenodd;fill:#3E7D52;}
	.st3{fill-rule:evenodd;clip-rule:evenodd;fill:#499560;}
	.st4{fill-rule:evenodd;clip-rule:evenodd;fill:#68BE7C;}
	.st5{fill:#366F4A;}
	.st6{fill:#3E7D52;}
	.st7{fill:#124C1E;}
</style>
<g>
	<g>
		<g>
			<g>
				<path class="st0" d="M402.13,403.66H109.27c-0.95,0-1.72-0.77-1.72-1.72V109.07c0-0.95,0.77-1.72,1.72-1.72h292.86
					c0.95,0,1.72,0.77,1.72,1.72v292.86C403.85,402.89,403.08,403.66,402.13,403.66z"/>
				<path class="st1" d="M382.8,406.72H128.6c-13.3,0-24.11-10.82-24.11-24.11V128.4c0-13.29,10.81-24.11,24.11-24.11h254.2
					c13.3,0,24.11,10.82,24.11,24.11v254.2C406.91,395.9,396.1,406.72,382.8,406.72z M128.6,110.41c-9.92,0-17.99,8.07-17.99,17.99
					v254.2c0,9.92,8.08,17.99,17.99,17.99h254.2c9.92,0,17.99-8.07,17.99-17.99V128.4c0-9.92-8.08-17.99-17.99-17.99H128.6z"/>
			</g>
		</g>
		<g>
			<g>
				<path class="st2" d="M268.5,233.98l-4.35-19.88c18.61,3.46,48.45,41.33,58.09,58.54c4.92,8.79,9.23,18.47,12.76,29.29
					c7.03,26.19,0.26,50.69-28.15,56.4c-17.8,3.58-51,3.83-69.73,2.86c-20.13-1.04-51.28-1.01-59.41-21.68
					c-13.13-33.36,10.93-73.1,32.87-97.42c2.89-3.2,5.87-6.18,8.96-8.94c7.98-7.02,16.58-15.35,26.86-18.82l-9.92,18.47l14.41-19.1
					h7.59L268.5,233.98L268.5,233.98z"/>
				<path class="st3" d="M268.5,233.98l-4.35-19.88c41.93,15.51,113.95,126.19,31.46,127.1c-140.15,1.54-113.21-17.22-76.08-108.03
					c7.98-7.02,16.59-15.35,26.86-18.82l-9.92,18.48l14.41-19.1h7.59L268.5,233.98L268.5,233.98z"/>
				<path class="st2" d="M268.5,233.98l-1.88-8.61c32.75,24.93,74.67,93.88,43.08,114.16c-4.02,1.04-8.7,1.15-14.08,1.68
					c-142.39,13.88-114.63-9.18-76.08-108.03c5.21-4.59,10.7-9.74,16.74-13.72l-9.34,17.39l14.41-19.1h3.23l-8.1,15.09l11.38-15.09
					h1.08L258.96,238l-4.35-19.88c2.63,1.09,5.42,2.66,8.32,4.61L268.5,233.98L268.5,233.98z"/>
				<circle class="st4" cx="254.68" cy="289.77" r="40.76"/>
				<g>
					<path class="st5" d="M248.04,206.7c0,0-21.44-25.33-25.06-30.75c-1.95-2.92-1.73-5.43-1.1-7.12c-0.86,0.57-1.62,1.12-2.23,1.58
						c-1.87,1.41-3.38,3.26-4.28,5.42c-1.32,3.2-0.74,5.49-0.74,5.49l24.23,29.06c8.4-5.18,20.71-2.69,20.71-2.69l5.2-5.14
						C253.42,202.12,248.04,206.7,248.04,206.7z"/>
					<path class="st5" d="M280.28,194.56l-8.25,8.89c-1.96-0.39-3.8-0.64-5.52-0.78l-2.45,5.67l8.21,2.05l5.27-6.18l-1.46,0.37
						L280.28,194.56z"/>
					<path class="st6" d="M295.86,174.83c-1.96-4.59-8.35-9.28-8.35-9.28l-10.01,13.24l9.18-22.72
						c-10.94-7.23-31.12-6.74-31.12-6.74c-6.13,0.28-10.79,1.08-14.29,2.06l8.14,26.32l-11.78-21.88l-5.46,2.93l7.95,26.67
						l-10.99-20.37c-2.6,0.89-5.22,2.41-7.26,3.77c-0.62,1.69-0.84,4.2,1.1,7.12c3.62,5.42,25.06,30.75,25.06,30.75
						s5.39-4.58,16.73-4.14l3.11-3.07l-1.37,3.17c1.71,0.14,3.55,0.39,5.52,0.78l8.25-8.89l-4.2,10.01l1.46-0.37l16.81-19.71
						C297.91,178.69,295.86,174.83,295.86,174.83z"/>
					<path class="st5" d="M249.41,177.71l-8.14-26.32c-7.61,2.12-9.79,5.02-9.79,5.02l0.7,2.35l5.46-2.93L249.41,177.71z"/>
				</g>
			</g>
			<g>
				<g>
					<path class="st7" d="M263.32,326.79h-14.46v-8.23c-11.61-2.96-16.92-12.32-16.92-19.99v-1.53h15.52l0.17,1.34
						c0.04,0.28,1.04,7.04,9.96,7.04c3.79,0,6.24-1.23,6.24-3.13c0-2.07-3.52-3.08-8.15-4.18l-0.59-0.14
						c-8.38-1.96-22.38-5.23-22.38-17.87c0-8.32,6.43-15.23,16.14-17.53v-8.6h14.46v8.88c10.29,2.89,14.98,11.28,14.98,18.1v1.53
						h-15.71v-1.53c0-1.68-2.34-4.68-7-4.68c-3.56,0-6.93,1.55-6.93,3.2c0,1.48,4.54,2.66,9.8,4.03l0.55,0.14
						c8.21,2.14,20.61,5.38,20.61,17.94c0,8.85-6.21,15.38-16.3,17.28V326.79z M251.92,323.73h8.34v-7.48l1.31-0.19
						c9.24-1.33,14.98-6.88,14.98-14.47c0-10.2-10.16-12.85-18.32-14.98l-0.55-0.14c-7.54-1.97-12.09-3.15-12.09-7
						c0-3.92,5.08-6.26,9.99-6.26c5.2,0,8.93,2.99,9.85,6.21h9.71c-0.67-5.58-5.03-11.9-13.7-13.89l-1.18-0.27v-8.23h-8.34v8.04
						l-1.24,0.23c-8.91,1.7-14.9,7.64-14.9,14.79c0,10.22,12.04,13.03,20.01,14.89l0.6,0.14c4.92,1.17,10.5,2.5,10.5,7.15
						c0,2.86-2.44,6.19-9.3,6.19c-9,0-11.84-5.71-12.68-8.38h-9.83c0.68,6.41,5.64,13.66,15.62,15.75l1.22,0.26V323.73z"/>
					<path class="st0" d="M261.18,316.49v7.68h-11.4v-7.92c-11.87-2.48-16.91-11.72-16.91-18.77h12.64c0,0,1.01,8.38,11.48,8.38
						c5.67,0,7.76-2.41,7.76-4.66c0-3.34-4.42-4.5-9.31-5.66c-7.91-1.86-21.8-4.81-21.8-16.53c0-8.15,6.75-14.51,16.14-16.29v-8.3
						h11.4v8.53c9.78,2.25,14.98,10.01,14.98,16.91h-12.65c0-2.64-3.11-6.21-8.53-6.21c-3.8,0-8.46,1.71-8.46,4.73
						c0,2.56,3.49,3.57,10.94,5.51c8.3,2.17,20.01,4.97,20.01,16.6C277.48,309.19,270.88,315.09,261.18,316.49z"/>
				</g>
			</g>
		</g>
	</g>
	<g>
		<g>
			<g>
				<path class="st0" d="M402.13,403.66H109.27c-0.95,0-1.72-0.77-1.72-1.72V109.07c0-0.95,0.77-1.72,1.72-1.72h292.86
					c0.95,0,1.72,0.77,1.72,1.72v292.86C403.85,402.89,403.08,403.66,402.13,403.66z"/>
				<path class="st1" d="M382.8,406.72H128.6c-13.3,0-24.11-10.82-24.11-24.11V128.4c0-13.29,10.81-24.11,24.11-24.11h254.2
					c13.3,0,24.11,10.82,24.11,24.11v254.2C406.91,395.9,396.1,406.72,382.8,406.72z M128.6,110.41c-9.92,0-17.99,8.07-17.99,17.99
					v254.2c0,9.92,8.08,17.99,17.99,17.99h254.2c9.92,0,17.99-8.07,17.99-17.99V128.4c0-9.92-8.08-17.99-17.99-17.99H128.6z"/>
			</g>
		</g>
		<g>
			<g>
				<path class="st2" d="M268.5,233.98l-4.35-19.88c18.61,3.46,48.45,41.33,58.09,58.54c4.92,8.79,9.23,18.47,12.76,29.29
					c7.03,26.19,0.26,50.69-28.15,56.4c-17.8,3.58-51,3.83-69.73,2.86c-20.13-1.04-51.28-1.01-59.41-21.68
					c-13.13-33.36,10.93-73.1,32.87-97.42c2.89-3.2,5.87-6.18,8.96-8.94c7.98-7.02,16.58-15.35,26.86-18.82l-9.92,18.47l14.41-19.1
					h7.59L268.5,233.98L268.5,233.98z"/>
				<path class="st3" d="M268.5,233.98l-4.35-19.88c41.93,15.51,113.95,126.19,31.46,127.1c-140.15,1.54-113.21-17.22-76.08-108.03
					c7.98-7.02,16.59-15.35,26.86-18.82l-9.92,18.48l14.41-19.1h7.59L268.5,233.98L268.5,233.98z"/>
				<path class="st2" d="M268.5,233.98l-1.88-8.61c32.75,24.93,74.67,93.88,43.08,114.16c-4.02,1.04-8.7,1.15-14.08,1.68
					c-142.39,13.88-114.63-9.18-76.08-108.03c5.21-4.59,10.7-9.74,16.74-13.72l-9.34,17.39l14.41-19.1h3.23l-8.1,15.09l11.38-15.09
					h1.08L258.96,238l-4.35-19.88c2.63,1.09,5.42,2.66,8.32,4.61L268.5,233.98L268.5,233.98z"/>
				<circle class="st4" cx="254.68" cy="289.77" r="40.76"/>
				<g>
					<path class="st5" d="M248.04,206.7c0,0-21.44-25.33-25.06-30.75c-1.95-2.92-1.73-5.43-1.1-7.12c-0.86,0.57-1.62,1.12-2.23,1.58
						c-1.87,1.41-3.38,3.26-4.28,5.42c-1.32,3.2-0.74,5.49-0.74,5.49l24.23,29.06c8.4-5.18,20.71-2.69,20.71-2.69l5.2-5.14
						C253.42,202.12,248.04,206.7,248.04,206.7z"/>
					<path class="st5" d="M280.28,194.56l-8.25,8.89c-1.96-0.39-3.8-0.64-5.52-0.78l-2.45,5.67l8.21,2.05l5.27-6.18l-1.46,0.37
						L280.28,194.56z"/>
					<path class="st6" d="M295.86,174.83c-1.96-4.59-8.35-9.28-8.35-9.28l-10.01,13.24l9.18-22.72
						c-10.94-7.23-31.12-6.74-31.12-6.74c-6.13,0.28-10.79,1.08-14.29,2.06l8.14,26.32l-11.78-21.88l-5.46,2.93l7.95,26.67
						l-10.99-20.37c-2.6,0.89-5.22,2.41-7.26,3.77c-0.62,1.69-0.84,4.2,1.1,7.12c3.62,5.42,25.06,30.75,25.06,30.75
						s5.39-4.58,16.73-4.14l3.11-3.07l-1.37,3.17c1.71,0.14,3.55,0.39,5.52,0.78l8.25-8.89l-4.2,10.01l1.46-0.37l16.81-19.71
						C297.91,178.69,295.86,174.83,295.86,174.83z"/>
					<path class="st5" d="M249.41,177.71l-8.14-26.32c-7.61,2.12-9.79,5.02-9.79,5.02l0.7,2.35l5.46-2.93L249.41,177.71z"/>
				</g>
			</g>
			<g>
				<g>
					<path class="st7" d="M263.32,326.79h-14.46v-8.23c-11.61-2.96-16.92-12.32-16.92-19.99v-1.53h15.52l0.17,1.34
						c0.04,0.28,1.04,7.04,9.96,7.04c3.79,0,6.24-1.23,6.24-3.13c0-2.07-3.52-3.08-8.15-4.18l-0.59-0.14
						c-8.38-1.96-22.38-5.23-22.38-17.87c0-8.32,6.43-15.23,16.14-17.53v-8.6h14.46v8.88c10.29,2.89,14.98,11.28,14.98,18.1v1.53
						h-15.71v-1.53c0-1.68-2.34-4.68-7-4.68c-3.56,0-6.93,1.55-6.93,3.2c0,1.48,4.54,2.66,9.8,4.03l0.55,0.14
						c8.21,2.14,20.61,5.38,20.61,17.94c0,8.85-6.21,15.38-16.3,17.28V326.79z M251.92,323.73h8.34v-7.48l1.31-0.19
						c9.24-1.33,14.98-6.88,14.98-14.47c0-10.2-10.16-12.85-18.32-14.98l-0.55-0.14c-7.54-1.97-12.09-3.15-12.09-7
						c0-3.92,5.08-6.26,9.99-6.26c5.2,0,8.93,2.99,9.85,6.21h9.71c-0.67-5.58-5.03-11.9-13.7-13.89l-1.18-0.27v-8.23h-8.34v8.04
						l-1.24,0.23c-8.91,1.7-14.9,7.64-14.9,14.79c0,10.22,12.04,13.03,20.01,14.89l0.6,0.14c4.92,1.17,10.5,2.5,10.5,7.15
						c0,2.86-2.44,6.19-9.3,6.19c-9,0-11.84-5.71-12.68-8.38h-9.83c0.68,6.41,5.64,13.66,15.62,15.75l1.22,0.26V323.73z"/>
					<path class="st0" d="M261.18,316.49v7.68h-11.4v-7.92c-11.87-2.48-16.91-11.72-16.91-18.77h12.64c0,0,1.01,8.38,11.48,8.38
						c5.67,0,7.76-2.41,7.76-4.66c0-3.34-4.42-4.5-9.31-5.66c-7.91-1.86-21.8-4.81-21.8-16.53c0-8.15,6.75-14.51,16.14-16.29v-8.3
						h11.4v8.53c9.78,2.25,14.98,10.01,14.98,16.91h-12.65c0-2.64-3.11-6.21-8.53-6.21c-3.8,0-8.46,1.71-8.46,4.73
						c0,2.56,3.49,3.57,10.94,5.51c8.3,2.17,20.01,4.97,20.01,16.6C277.48,309.19,270.88,315.09,261.18,316.49z"/>
				</g>
			</g>
		</g>
	</g>
</g>
</svg>
