<?xml version="1.0" encoding="utf-8"?>
<!-- Generator: Adobe Illustrator 25.0.0, SVG Export Plug-In . SVG Version: 6.00 Build 0)  -->
<svg version="1.1" id="Layer_1" xmlns="http://www.w3.org/2000/svg" xmlns:xlink="http://www.w3.org/1999/xlink" x="0px" y="0px"
	 viewBox="0 0 512 512" style="enable-background:new 0 0 512 512;" xml:space="preserve">
<style type="text/css">
	.st0{fill:#0084FF;}
	.st1{fill:#FFFFFF;}
</style>
<g>
	<g>
		<path class="st0" d="M415,348.2V216.4c0-85.8-66.8-159-152.6-162.6C172,50.2,97,123.3,97,212.8v135.5c-23.5,0-42.4,19-42.4,42.4
			v17.1H97h53.3h211.3H415h42.4v-17.2C457.4,368.1,438.5,348.2,415,348.2z M361.7,348.2H150.3V212.8c0-57.8,47.9-105.7,105.7-105.7
			S361.7,155,361.7,212.8V348.2z"/>
		<path class="st1" d="M315.6,427.7c0,17.2-10.8,30.7-24.4,30.7h-74c-13.6,0-24.4-13.6-24.4-30.7H315.6z"/>
	</g>
</g>
</svg>
