<?xml version="1.0" encoding="utf-8"?>
<!-- Generator: Adobe Illustrator 25.0.0, SVG Export Plug-In . SVG Version: 6.00 Build 0)  -->
<svg version="1.1" id="Layer_1" xmlns="http://www.w3.org/2000/svg" xmlns:xlink="http://www.w3.org/1999/xlink" x="0px" y="0px"
	 viewBox="0 0 512 512" style="enable-background:new 0 0 512 512;" xml:space="preserve">
<style type="text/css">
	.st0{fill:#BFBFBF;}
</style>
<g>
	<g>
		<path class="st0" d="M299.11,172.36L299.11,172.36c-0.1-0.5-0.1-0.9-0.2-1.3c-3.19-20.76-21.36-36.83-42.92-36.83
			c-22.16,0-40.52,16.77-43.11,38.12v0.1c-0.1,1.4-0.3,5.79,0.2,8.98l16.97,101.2c0.5,14.07,11.98,25.25,26.05,25.25
			c14.07,0,25.65-11.28,26.05-25.25l16.57-99.3c0.1-0.4,0.1-0.8,0.2-1.2C299.51,177.85,299.31,174.16,299.11,172.36z M281.25,182.25
			l-16.37,98.41c-0.1,0.5-0.1,0.9-0.1,1.4c-0.1,3.89-2.5,7.49-6.29,8.48c-5.89,1.6-11.18-2.79-11.18-8.38c0-0.5,0-1-0.1-1.4
			l-16.37-98.41c-1.5-8.98,1.4-18.56,8.48-24.35c4.49-3.79,10.38-6.09,16.77-6.09c6.39,0,12.28,2.3,16.77,6.09
			C279.75,163.68,282.75,173.16,281.25,182.25z"/>
		<path class="st0" d="M256,325.56c-14.37,0-26.05,11.68-26.05,26.05c0,14.37,11.68,26.05,26.05,26.05
			c14.37,0,26.05-11.68,26.05-26.05C282.05,337.24,270.37,325.56,256,325.56z M256,360.29c-4.79,0-8.68-3.89-8.68-8.68
			c0-4.89,3.89-8.68,8.68-8.68c4.79,0,8.68,3.89,8.68,8.68C264.78,356.4,260.79,360.29,256,360.29z"/>
	</g>
	<g>
		<path class="st0" d="M256,475.97c-121.26,0-219.97-98.61-219.97-219.97c0-121.26,98.71-219.97,219.97-219.97
			S475.97,134.74,475.97,256C475.97,377.36,377.26,475.97,256,475.97z M256,55.5C145.42,55.5,55.4,145.42,55.4,256
			S145.42,456.6,256,456.6S456.5,366.68,456.5,256S366.58,55.5,256,55.5z"/>
	</g>
</g>
</svg>
