<?xml version="1.0" encoding="utf-8"?>
<!-- Generator: Adobe Illustrator 25.0.0, SVG Export Plug-In . SVG Version: 6.00 Build 0)  -->
<svg version="1.1" id="Layer_1" xmlns="http://www.w3.org/2000/svg" xmlns:xlink="http://www.w3.org/1999/xlink" x="0px" y="0px"
	 viewBox="0 0 512 512" style="enable-background:new 0 0 512 512;" xml:space="preserve">
<style type="text/css">
	.st0{fill-rule:evenodd;clip-rule:evenodd;fill:#848484;}
</style>
<g>
	<path class="st0" d="M419.1,208.6c-5.2-5.4-10.5-10.9-12.3-15.1c-1.8-4.4-1.9-11.9-2-19.4c-0.3-18.1-0.5-35.9-15.8-51.2
		c-15.3-15.3-33.1-15.6-51.2-15.8c-7.5-0.1-15-0.2-19.4-2c-4.2-1.7-9.7-7-15.1-12.3c-13-12.6-25.7-25-47.4-25
		c-21.7,0-34.4,12.4-47.4,25c-5.4,5.2-10.9,10.5-15.1,12.3c-4.4,1.8-11.9,1.9-19.4,2c-18.1,0.3-35.9,0.5-51.2,15.8
		c-15.3,15.3-15.6,33.1-15.8,51.2c-0.1,7.5-0.2,15-2,19.4c-1.7,4.2-7,9.7-12.3,15.1c-12.6,13-25,25.7-25,47.4s12.4,34.4,25,47.4
		c5.2,5.4,10.5,10.9,12.3,15.1c1.8,4.4,1.9,11.9,2,19.4c0.3,18.1,0.5,35.9,15.8,51.2c15.3,15.3,33.1,15.6,51.2,15.8
		c7.5,0.1,15,0.2,19.4,2c4.2,1.7,9.7,7,15.1,12.3c13,12.6,25.7,25,47.4,25c21.7,0,34.4-12.4,47.4-25c5.4-5.2,10.9-10.5,15.1-12.3
		c4.4-1.8,11.9-1.9,19.4-2c18.1-0.3,35.9-0.5,51.2-15.8c15.3-15.3,15.6-33.1,15.8-51.2c0.1-7.5,0.2-15,2-19.4
		c1.7-4.2,7-9.7,12.3-15.1c12.6-13,25-25.7,25-47.4S431.7,221.6,419.1,208.6z M398.6,283.4L398.6,283.4
		c-7.1,7.3-14.4,14.8-18.2,24.1c-3.9,9.5-4.1,19.9-4.2,29.9c-0.3,17.6-1,24.9-7.4,31.3c-6.5,6.5-13.7,7.2-31.3,7.4
		c-10.1,0.1-20.5,0.3-30,4.2c-9.3,3.8-16.8,11.1-24.1,18.2c-12.6,12.3-18.2,16.9-27.4,16.9c-9.2,0-14.8-4.6-27.4-16.8l0,0
		c-7.3-7.1-14.8-14.4-24.1-18.2c-9.4-3.9-19.9-4.1-29.9-4.2c-17.6-0.3-24.9-1-31.3-7.4c-6.5-6.5-7.2-13.7-7.4-31.3
		c-0.1-10.1-0.3-20.5-4.2-30c-3.8-9.3-11.1-16.8-18.2-24.1c-12.3-12.6-16.9-18.2-16.9-27.4c0-9.2,4.6-14.8,16.8-27.4l0,0
		c7.1-7.3,14.4-14.8,18.2-24.1c3.9-9.5,4.1-19.9,4.2-29.9c0.3-17.6,1-24.9,7.4-31.3c6.5-6.5,13.7-7.2,31.3-7.4
		c10.1-0.1,20.5-0.3,30-4.2c9.3-3.8,16.8-11.1,24.1-18.2l0,0c12.6-12.2,18.2-16.8,27.4-16.8c9.2,0,14.8,4.6,27.4,16.8l0,0
		c7.3,7.1,14.8,14.4,24.1,18.2c9.5,3.9,19.9,4.1,29.9,4.2c17.6,0.3,24.9,1,31.3,7.4c6.5,6.5,7.2,13.7,7.4,31.3
		c0.1,10.1,0.3,20.5,4.2,30c3.8,9.3,11.1,16.8,18.2,24.1l0,0c12.2,12.6,16.9,18.2,16.9,27.4C415.4,265.2,410.8,270.8,398.6,283.4z"
		/>
	<path class="st0" d="M316.1,188.7c-26,28-52.2,56.2-78,83.9c-3.1,3.3-7.7,2.8-10.9-0.2l-32.6-30.3c-3.7-3.5-9.6-3.2-13,0.5
		L169,256.1c-3.5,3.7-3.2,9.6,0.5,13l58.8,54.7c3.7,3.5,9.6,3.2,13-0.5L343,213.8c3.5-3.7,3.2-9.6-0.5-13l-13.4-12.5
		C325.4,184.8,319.5,185,316.1,188.7L316.1,188.7L316.1,188.7z"/>
</g>
</svg>
