<?xml version="1.0" encoding="utf-8"?>
<!-- Generator: Adobe Illustrator 25.0.0, SVG Export Plug-In . SVG Version: 6.00 Build 0)  -->
<svg version="1.1" id="Layer_1" xmlns="http://www.w3.org/2000/svg" xmlns:xlink="http://www.w3.org/1999/xlink" x="0px" y="0px"
	 viewBox="0 0 512 512" style="enable-background:new 0 0 512 512;" xml:space="preserve">
<style type="text/css">
	.st0{fill:#BFBFBF;}
</style>
<g>
	<g>
		<path class="st0" d="M419.8,477.04H92.2c-31.56,0-57.24-25.68-57.24-57.24V92.19c0-31.56,25.68-57.24,57.24-57.24H419.8
			c31.56,0,57.24,25.68,57.24,57.24v327.62C477.04,451.37,451.36,477.04,419.8,477.04z M92.2,53.03
			c-21.59,0-39.16,17.56-39.16,39.16v327.62c0,21.6,17.57,39.16,39.16,39.16H419.8c21.59,0,39.16-17.56,39.16-39.16V92.19
			c0-21.6-17.57-39.16-39.16-39.16H92.2z"/>
	</g>
	<g>
		<path class="st0" d="M382.78,227.02c-0.04,3.06-1.67,6.8-4.77,9.97c-14.41,14.72-28.78,29.47-43.2,44.17
			c-1.6,1.63-2.16,3.34-1.82,5.62c2.95,19.81,5.78,39.64,8.75,59.45c0.63,4.18,0.64,8.18-1.49,11.96
			c-4.15,7.37-12.92,10.16-20.57,6.45c-8.27-4.01-16.48-8.13-24.72-12.21c-10.34-5.12-20.7-10.21-31.01-15.4
			c-2.1-1.06-3.96-1.06-6.07-0.01c-18.46,9.2-36.94,18.35-55.43,27.48c-7.96,3.93-17.2,0.95-21.13-6.72
			c-1.89-3.69-1.89-7.53-1.29-11.53c2.55-16.99,5.01-34,7.51-51.01c0.39-2.65,0.71-5.32,1.22-7.95c0.49-2.53-0.11-4.49-1.97-6.38
			c-14.41-14.64-28.74-29.35-43.09-44.05c-4.11-4.21-5.62-9.26-4.17-14.94c1.59-6.23,5.67-10.3,12-11.46
			c13.99-2.56,28.04-4.85,42.06-7.24c6.64-1.13,13.27-2.28,19.91-3.36c2.19-0.35,3.61-1.45,4.65-3.43
			c9.56-18.34,19.17-36.66,28.8-54.97c3.99-7.59,12.66-10.65,20.31-7.23c3.49,1.55,5.98,4.13,7.74,7.5
			c9.48,18.14,19.02,36.25,28.46,54.41c1.18,2.27,2.79,3.39,5.29,3.81c20.24,3.38,40.47,6.81,60.7,10.29
			C377.39,211.62,382.76,217.93,382.78,227.02z"/>
	</g>
</g>
</svg>
