<?xml version="1.0" encoding="utf-8"?>
<!-- Generator: Adobe Illustrator 25.0.0, SVG Export Plug-In . SVG Version: 6.00 Build 0)  -->
<svg version="1.1" id="Layer_1" xmlns="http://www.w3.org/2000/svg" xmlns:xlink="http://www.w3.org/1999/xlink" x="0px" y="0px"
	 viewBox="0 0 512 512" style="enable-background:new 0 0 512 512;" xml:space="preserve">
<style type="text/css">
	.st0{fill:#0084FF;}
</style>
<g>
	<g>
		<path class="st0" d="M201.9,57c-78.9,0-143.3,64.1-143.3,143.3s64.4,143.3,143.3,143.3c79.2,0,143.3-64.1,143.3-143.3
			S281.1,57,201.9,57z M201.9,304.5c-57.3,0-104.2-46.9-104.2-104.2c0-57.6,46.9-104.2,104.2-104.2c57.6,0,104.2,46.5,104.2,104.2
			C306,257.7,259.5,304.5,201.9,304.5z"/>
		<path class="st0" d="M162.3,200.5c0-13.1,5.3-25,13.9-33.7c2.8-2.8,2.8-7.3,0-10.1l0,0c-2.8-2.8-7.3-2.7-10.1,0.1
			c-11.2,11.2-18.1,26.6-18.1,43.7c0,16.9,6.8,32.2,17.8,43.4c2.9,2.9,7.7,2.8,10.4-0.3l0,0c2.4-2.8,2.3-7-0.3-9.6
			C167.6,225.3,162.3,213.5,162.3,200.5z"/>
		<path class="st0" d="M427.1,378.5l-60.7-60.7c-13.8-13.8-36.3-13.8-50.2,0l0,0c-13.8,13.8-13.8,36.3,0,50.2l60.7,60.7
			c13.8,13.8,36.3,13.8,50.2,0l0,0C441,414.8,441,392.4,427.1,378.5z"/>
	</g>
</g>
</svg>
