<?xml version="1.0" encoding="utf-8"?>
<!-- Generator: Adobe Illustrator 25.0.0, SVG Export Plug-In . SVG Version: 6.00 Build 0)  -->
<svg version="1.1" id="Layer_1" xmlns="http://www.w3.org/2000/svg" xmlns:xlink="http://www.w3.org/1999/xlink" x="0px" y="0px"
	 viewBox="0 0 512 512" style="enable-background:new 0 0 512 512;" xml:space="preserve">
<style type="text/css">
	.st0{fill:#FFFFFF;}
	.st1{fill:#CCCACA;}
	.st2{fill:#0090FF;}
</style>
<g>
	<g>
		<g>
			<path class="st0" d="M402.14,403.85H109.87c-0.95,0-1.72-0.77-1.72-1.72V109.87c0-0.95,0.77-1.72,1.72-1.72h292.27
				c0.95,0,1.72,0.77,1.72,1.72v292.27C403.86,403.08,403.09,403.85,402.14,403.85z"/>
			<path class="st1" d="M382.85,406.91H129.15c-13.27,0-24.06-10.8-24.06-24.06V129.15c0-13.27,10.79-24.06,24.06-24.06h253.69
				c13.27,0,24.06,10.8,24.06,24.06v253.69C406.91,396.11,396.12,406.91,382.85,406.91z M129.15,111.2
				c-9.9,0-17.96,8.05-17.96,17.96v253.69c0,9.9,8.06,17.96,17.96,17.96h253.69c9.9,0,17.96-8.05,17.96-17.96V129.15
				c0-9.9-8.06-17.96-17.96-17.96H129.15z"/>
		</g>
	</g>
	<g>
		<g>
			<path class="st2" d="M245.4,323.3c-6.28-0.24-12.91-0.77-19.89-1.6c-6.99-0.83-13.56-1.89-19.72-3.2v-21.49
				c9.35,2.02,17.94,3.52,25.75,4.53c7.82,1.01,14.86,1.51,21.14,1.51c18.94,0,28.41-5.38,28.41-16.16c0-3.2-0.66-5.89-1.96-8.08
				c-1.31-2.19-3.17-4.02-5.59-5.51c-2.43-1.48-5.33-2.69-8.7-3.64c-3.37-0.95-7.08-1.84-11.1-2.66
				c-8.17-1.54-15.19-3.46-21.05-5.77s-10.65-5.09-14.39-8.35c-3.73-3.26-6.45-7.11-8.17-11.54c-1.72-4.44-2.58-9.56-2.58-15.36
				c0-9.59,3.14-17.55,9.41-23.88c6.27-6.33,15.03-10.56,26.28-12.7v-25.75h24.68v24.51c4.5,0.24,9.38,0.74,14.65,1.51
				c5.26,0.77,11.51,1.81,18.73,3.11v21.31c-6.15-1.78-12.69-3.14-19.62-4.08c-6.93-0.95-13.23-1.42-18.91-1.42
				c-8.76,0-15.54,1.45-20.34,4.35c-4.79,2.9-7.19,7.02-7.19,12.34c0,2.72,0.47,5.12,1.42,7.2c0.95,2.07,2.49,3.93,4.62,5.59
				c2.13,1.66,4.97,3.11,8.52,4.35c3.55,1.24,7.93,2.4,13.14,3.46c7.22,1.42,13.65,3.11,19.27,5.06c5.62,1.96,10.39,4.41,14.3,7.37
				c3.91,2.96,6.9,6.57,8.97,10.83c2.07,4.26,3.11,9.41,3.11,15.45c0,21.9-12.9,34.57-38.71,38v25.75h-24.5V323.3z"/>
		</g>
	</g>
</g>
</svg>
