<?xml version="1.0" encoding="utf-8"?>
<!-- Generator: Adobe Illustrator 25.0.0, SVG Export Plug-In . SVG Version: 6.00 Build 0)  -->
<svg version="1.1" id="Layer_1" xmlns="http://www.w3.org/2000/svg" xmlns:xlink="http://www.w3.org/1999/xlink" x="0px" y="0px"
	 viewBox="0 0 512 512" style="enable-background:new 0 0 512 512;" xml:space="preserve">
<style type="text/css">
	.st0{fill:#FFFFFF;}
	.st1{fill:#CCCACA;}
	.st2{fill:none;}
	.st3{fill:#0090FF;}
	.st4{fill:#C90E00;}
</style>
<g>
	<g>
		<g>
			<path class="st0" d="M403.03,404.75H108.97c-0.95,0-1.72-0.77-1.72-1.72V108.97c0-0.95,0.77-1.72,1.72-1.72h294.06
				c0.95,0,1.72,0.77,1.72,1.72v294.06C404.75,403.98,403.98,404.75,403.03,404.75z"/>
			<path class="st1" d="M383.62,407.82H128.38c-13.35,0-24.21-10.86-24.21-24.21V128.38c0-13.35,10.86-24.21,24.21-24.21h255.23
				c13.35,0,24.21,10.86,24.21,24.21v255.23C407.82,396.96,396.97,407.82,383.62,407.82z M128.38,110.32
				c-9.96,0-18.07,8.1-18.07,18.07v255.23c0,9.96,8.11,18.07,18.07,18.07h255.23c9.96,0,18.07-8.1,18.07-18.07V128.38
				c0-9.96-8.11-18.07-18.07-18.07L128.38,110.32L128.38,110.32z"/>
		</g>
	</g>
	<g>
		<path class="st2" d="M288.74,319.57l-35.96-19.92c-3.36-1.84-5.59-5.25-5.91-9.08c-0.32-3.82,1.31-7.56,4.32-9.93
			c9.86-7.76,12.63-24.84,12.63-33.78v-24.12c0-8.4-14.61-22.33-31.11-22.33c-16.2,0-31.66,14.12-31.66,22.33v24.12
			c0,9.07,4.11,26.08,13.68,33.76c2.98,2.39,4.57,6.12,4.23,9.93c-0.34,3.81-2.57,7.19-5.93,9.02l-36.89,20.01
			c-0.26,0.15-0.53,0.28-0.79,0.4c-0.9,0.41-2.05,1.1-2.87,1.7v10.21h119.94v-10.33c-0.76-0.53-1.79-1.12-2.64-1.48
			C289.46,319.93,289.05,319.74,288.74,319.57z"/>
		<path class="st3" d="M294.21,309.54L294.21,309.54l-35.95-19.91c13.36-10.51,17-31.18,17-42.76v-24.12
			c0-15.97-21.22-33.75-42.53-33.75c-21.3,0-43.08,17.78-43.08,33.75v24.12c0,10.54,4.45,31.84,17.96,42.67l-36.88,20.01
			c0,0-9.64,4.3-9.64,9.65v14.47c0,5.33,4.32,9.65,9.64,9.65h123.5c5.32,0,9.64-4.32,9.64-9.65V319.2
			C303.85,313.5,294.21,309.54,294.21,309.54z M292.43,331.89H172.49v-10.21c0.82-0.6,1.96-1.29,2.87-1.7
			c0.27-0.12,0.54-0.25,0.79-0.4l36.89-20.01c3.36-1.83,5.59-5.21,5.93-9.02s-1.25-7.54-4.23-9.93
			c-9.58-7.68-13.68-24.68-13.68-33.76v-24.12c0-8.21,15.47-22.33,31.66-22.33c16.5,0,31.11,13.93,31.11,22.33v24.12
			c0,8.94-2.78,26.03-12.63,33.78c-3.02,2.38-4.64,6.11-4.32,9.93c0.32,3.82,2.55,7.24,5.91,9.08l35.96,19.92
			c0.31,0.17,0.72,0.36,1.05,0.51c0.84,0.36,1.88,0.95,2.64,1.48v10.33H292.43z"/>
		<path class="st4" d="M334.19,281.11L334.19,281.11l-36.5-19.92c13.36-10.51,17.53-31.18,17.53-42.76V194.3
			c0-15.97-21.75-33.93-43.06-33.93c-13.85,0-28.01,7.53-36.25,17.17c4.7,0.29,9.88,0.3,14.36,1.72c6.02-4.69,13.63-7.47,21.89-7.47
			c16.5,0,31.64,14.11,31.64,22.51v24.12c0,8.94-3.31,26.02-13.16,33.78c-3.02,2.38-4.64,6.11-4.32,9.93
			c0.32,3.83,2.54,7.24,5.91,9.07l36.49,19.92c0.31,0.17,0.72,0.36,1.05,0.51c0.84,0.36,1.88,0.95,2.64,1.48v10.16h-23.06
			c3.48,2.63,4.53,6.39,5.89,11.42h18.96c5.32,0,9.64-4.32,9.64-9.65v-14.29C343.83,285.08,334.19,281.11,334.19,281.11z"/>
	</g>
</g>
</svg>
