<?xml version="1.0" encoding="utf-8"?>
<!-- Generator: Adobe Illustrator 25.0.0, SVG Export Plug-In . SVG Version: 6.00 Build 0)  -->
<svg version="1.1" id="Layer_1" xmlns="http://www.w3.org/2000/svg" xmlns:xlink="http://www.w3.org/1999/xlink" x="0px" y="0px"
	 viewBox="0 0 512 512" style="enable-background:new 0 0 512 512;" xml:space="preserve">
<style type="text/css">
	.st0{fill:#F3F3F3;}
	.st1{fill:#003B82;}
	.st2{fill:#FDFEFE;}
	.st3{fill:#0090FF;}
</style>
<g>
	<path class="st0" d="M353.2,348.5c1,0.1,1.7,0.1,2.3,0.2c24.8,4.6,41.6-10,39.7-35.2c-0.4-5.3,2.5-3.8,5.1-3.6
		c11.8,0.6,21.2-4,27.2-14.2c5.8-10,5.5-20.4-0.9-30c-2.8-4.1-2.2-5.4,2.2-7.3c14.9-6.2,28.6-14.5,41.7-23.9c5.4-3.9,5.6-7,2.3-12.4
		c-23.3-36.8-46.4-73.8-69.4-110.7c-2.3-3.7-4.6-4.6-8.7-2.8c-7.9,3.4-16.2,5.5-24.8,6.4c-21.5,2.4-42.1-1.5-62.4-8
		c-11.9-3.8-23.7-3.9-35.7-0.1c-22.2,7.1-44.6,13.8-66.9,20.6c-2.7,0.8-5.4,1.4-8.4,1c-26.5-3.4-51.6-11-74.7-24.7
		c-7.9-4.7-8.2-4.5-13.2,3.4c-12.9,20.7-25.9,41.4-38.9,62.1c-10,16-20.1,32-30.2,48.1c-2,3.2-3.9,6.1-1.2,10.2
		C48.2,242.4,58,257,71.1,269c4.5,4.2,4.1,6.8,0.4,10.5c-0.9,0.9-1.8,1.9-2.6,3c-6.7,9.1-8.4,18.9-3.4,29.2c4.7,9.6,13,14,23.5,14.5
		c1.1,0.1,2.2,0.2,3.1,0.3c0.8,1.8-0.2,3.2-0.6,4.7c-4.3,20.4,13.1,37.2,33.2,31.6c4.5-1.3,4.9,0.1,5.8,3.7
		c4.8,18.6,21.9,26.2,39.2,17.8c1.3-0.7,2.7-1.3,4.2-2.1c0.6,1.7,1,3.2,1.6,4.6c7.8,20.1,31.5,24.4,45.8,8.2
		c2.5-2.8,4.8-5.8,6.9-8.8c2.7-3.9,5.1-4.2,9.1-1.3c10.3,7.5,20.9,14.7,31.6,21.7c8.8,5.7,18.2,6.5,27.6,1.6
		c9.6-5.1,14.5-13.2,14.6-24.1c0-1.2-0.7-2.6,0.7-3.6C332.3,388.7,355.1,375.7,353.2,348.5z"/>
	<path class="st1" d="M353.2,348.5c1.9,27.2-20.9,40.2-41.6,31.7c-1.4,1-0.7,2.4-0.7,3.6c-0.1,10.9-5,19-14.6,24.1
		c-9.4,5-18.8,4.1-27.6-1.6c-10.7-7-21.2-14.2-31.6-21.7c-4-2.9-6.4-2.6-9.1,1.3c-2.1,3.1-4.5,6-6.9,8.8
		c-14.3,16.2-38,11.9-45.8-8.2c-0.5-1.4-1-2.8-1.6-4.6c-1.5,0.7-2.9,1.4-4.2,2.1c-17.3,8.5-34.4,0.8-39.2-17.8
		c-0.9-3.6-1.3-5-5.8-3.7c-20,5.6-37.5-11.2-33.2-31.6c0.3-1.5,1.3-2.8,0.6-4.7c-0.9-0.1-2-0.2-3.1-0.3
		c-10.5-0.5-18.7-4.9-23.5-14.5c-5.1-10.3-3.3-20.1,3.4-29.2c0.8-1.1,1.6-2.1,2.6-3c3.8-3.7,4.2-6.3-0.4-10.5
		c-13.1-12-22.9-26.6-32.7-41.3c-2.7-4.1-0.8-7,1.2-10.2c10-16,20.1-32.1,30.2-48.1c13-20.7,25.9-41.4,38.9-62.1
		c4.9-7.9,5.3-8,13.2-3.4c23.1,13.7,48.2,21.4,74.7,24.7c3,0.4,5.7-0.2,8.4-1c22.3-6.8,44.7-13.5,66.9-20.6
		c12-3.8,23.8-3.7,35.7,0.1c20.3,6.4,41,10.4,62.4,8c8.6-1,16.9-3,24.8-6.4c4.1-1.8,6.4-0.9,8.7,2.8c23,37,46.1,73.9,69.4,110.7
		c3.4,5.4,3.1,8.5-2.3,12.4c-13.1,9.5-26.8,17.7-41.7,23.9c-4.4,1.8-5,3.1-2.2,7.3c6.4,9.6,6.7,20,0.9,30
		c-5.9,10.2-15.3,14.8-27.2,14.2c-2.7-0.1-5.5-1.7-5.1,3.6c1.8,25.1-15,39.8-39.7,35.2C354.9,348.6,354.2,348.6,353.2,348.5z
		 M213,332c25.4,3.1,33.5,16.2,25.3,40.9c-0.9,2.7,0.2,3.6,1.9,4.7c11.3,7.7,22.4,15.5,33.9,22.9c8.4,5.4,20,2.8,25.5-4.9
		c6-8.4,4.4-20.2-3.9-26.6c-6.8-5.2-13.9-10.1-20.9-15.1c-7-5-14-10-21-14.9c-2.2-1.6-3.7-3.6-2-6.1c1.7-2.6,4.2-1.8,6.4-0.3
		c2,1.4,3.9,2.8,5.9,4.2c16,11.3,32,22.6,48,34c6.9,4.9,14.3,5.9,21.8,2.1c14.5-7.4,15.7-26.4,2.3-35.9
		c-18.5-13.1-37.2-25.9-55.9-38.8c-2.5-1.7-6.2-3.5-3.9-7.1c2.7-4.2,5.7-0.6,8.4,0.9c0.6,0.3,1,0.8,1.6,1.2
		c21.4,14.8,42.7,29.6,64.1,44.4c7,4.9,14.6,6.2,22.5,3c8.6-3.5,14-9.9,15-19.3c1-9.6-2.8-17.2-10.8-22.6
		c-17.2-11.5-34.5-22.9-51.7-34.4c-8.6-5.7-17.3-11.4-25.9-17.1c-2.2-1.5-3.9-3.3-2.2-6c1.7-2.8,4.1-1.9,6.3-0.6
		c1.3,0.8,2.6,1.7,3.9,2.5c27.7,18.4,55.3,36.9,83.1,55.2c10.6,7,23.2,4.5,29.7-5.4c6.5-9.8,3.8-22.5-6.5-29.5
		c-42-28.3-84.1-56.4-126.1-84.7c-2.9-2-5.8-2.8-9.3-2.1c-11.6,2.1-23.3,1.9-34.8-0.4c-4.1-0.8-6.7,0.3-9.1,3.4
		c-4.9,6.5-10.7,12.4-17.1,17.4c-15.9,12.5-33.2,18.1-52.9,9.4c-16.5-7.3-19.3-18.8-8.3-33c8.3-10.6,16.6-21.2,24.5-32
		c4.3-5.8,3.6-6.9-3.3-8.3c-19.8-4.1-38.6-10.8-56.1-20.9c-3.5-2-5.4-2.1-7.8,1.8c-7.7,12.8-15.8,25.4-23.8,38.1
		c-13.5,21.4-27,42.8-40.4,64.3c-1.8,2.8-5.4,5.6-2.4,10c9.1,13.5,18.6,26.7,30.4,38.1c2.5,2.4,4.1,2.6,6.2-0.3
		c3.3-4.4,6.6-8.9,10.3-12.9c10.9-11.5,28.7-10.9,39.2,1c3.3,3.8,5,8.4,6.6,13.4c2.1-1.4,3.6-2.3,5-3.2c15.5-9.7,35.5-1.6,39.9,16
		c3,12.2,3,12.2,14.8,17.3C212.5,301.5,217.4,314.3,213,332z M289.1,111.7c-5.4-0.3-10.7,1-16,2.7c-23.8,7.4-47.5,14.8-71.2,22.1
		c-6.5,2-12,5.5-16.1,10.9c-8.5,10.9-16.9,21.9-25.3,32.9c-5.6,7.3-4.2,13.2,4,17.8c11.4,6.4,23.1,6.7,34.9,1.3
		c12.2-5.5,21.5-14.4,29.5-24.8c3.9-5,8.3-7.3,14.8-5.9c10.6,2.2,21.5,2.4,32.2,0.7c6.4-1,11.4,0,16.7,3.6
		c39.4,26.6,78.9,53,118.4,79.5c2.7,1.8,5.1,3.1,8.5,1.7c15.6-6.2,30.3-14.1,44-23.9c3.5-2.5,3.3-4.2,1.1-7.3
		c-5.9-8.8-11.5-17.7-17.1-26.7c-15.6-25-31.3-50-46.7-75.1c-2.6-4.2-5.2-4.8-9.7-3.4c-22.4,7.3-45,6-67.8,1.4
		C311.9,117.1,301.3,111.1,289.1,111.7z M116.5,356.4c8.2,0,13.4-4,17.8-9.6c6.2-8,12.5-15.9,18.7-23.8c6.7-8.4,13.4-16.8,20-25.3
		c7.1-9.1,6-21.1-2.3-27.7c-8.7-6.8-20.4-4.9-27.8,4.4c-2.2,2.8-4.5,5.4-6.6,8.2c-11.5,14.5-23,28.8-34.3,43.4
		c-4.9,6.3-5.1,13.4-1.6,20.5C103.9,353.3,110.1,355.7,116.5,356.4z M137.3,361c0,8,4.9,15.3,11.5,17.7c8.3,3.1,16.5,1.4,22.1-5.5
		c10.7-13.1,21-26.5,31.6-39.7c7.3-9.1,6.8-21-1.3-27.8c-8.9-7.4-20-6.3-27.9,3.4c-10.7,13.1-21.1,26.5-31.6,39.7
		C138.7,352.6,137,356.7,137.3,361z M90.3,318.5c3.9,0.3,8.2-1.2,11.5-4.8c10.1-10.8,19.1-22.4,27.4-34.6c5.8-8.4,2.8-19.6-5.1-25.2
		c-8.3-5.8-18.8-4.6-25.5,3.5c-8.6,10.3-17,20.7-25.1,31.4c-4.6,6.1-4.8,13.2-1.1,19.9C76,315.2,81.7,318.6,90.3,318.5z
		 M234.4,358.9c-0.1-8.5-4.1-14.7-11.1-17.4c-7.8-3.1-16.9-1.2-22.3,5.3c-5.6,6.7-11,13.7-16.2,20.8c-3.1,4.2-4.3,9.1-3,14.4
		c1.9,8,6.9,13.1,15,14.9c7.7,1.7,13.9-1.2,18.8-6.9c4.9-5.7,9.2-11.8,14-17.5C233.1,368.3,234.7,363.8,234.4,358.9z"/>
	<path class="st2" d="M213,332c4.4-17.8-0.5-30.5-13.6-36.2c-11.7-5.1-11.7-5.1-14.8-17.3c-4.4-17.6-24.4-25.7-39.9-16
		c-1.5,0.9-2.9,1.9-5,3.2c-1.6-5-3.3-9.6-6.6-13.4c-10.5-11.9-28.3-12.5-39.2-1c-3.8,4-7.1,8.4-10.3,12.9c-2.1,2.9-3.8,2.7-6.2,0.3
		c-11.8-11.4-21.3-24.6-30.4-38.1c-3-4.4,0.6-7.2,2.4-10c13.3-21.5,26.9-42.9,40.4-64.3c8-12.7,16.1-25.2,23.8-38.1
		c2.3-3.9,4.3-3.8,7.8-1.8c17.5,10.2,36.3,16.8,56.1,20.9c7,1.5,7.6,2.5,3.3,8.3c-7.9,10.8-16.2,21.4-24.5,32
		c-11,14.2-8.2,25.7,8.3,33c19.7,8.7,37,3.1,52.9-9.4c6.4-5,12.2-10.9,17.1-17.4c2.3-3.1,5-4.2,9.1-3.4c11.5,2.3,23.2,2.4,34.8,0.4
		c3.5-0.6,6.4,0.2,9.3,2.1c42,28.3,84.1,56.4,126.1,84.7c10.4,7,13,19.7,6.5,29.5c-6.6,9.9-19.2,12.3-29.7,5.4
		c-27.8-18.3-55.4-36.8-83.1-55.2c-1.3-0.9-2.6-1.7-3.9-2.5c-2.2-1.4-4.6-2.2-6.3,0.6c-1.7,2.7,0,4.5,2.2,6
		c8.6,5.7,17.3,11.4,25.9,17.1c17.3,11.4,34.5,22.9,51.7,34.4c8,5.4,11.8,13,10.8,22.6c-1,9.4-6.4,15.8-15,19.3
		c-8,3.2-15.5,1.8-22.5-3c-21.4-14.8-42.7-29.6-64.1-44.4c-0.5-0.4-1-0.9-1.6-1.2c-2.7-1.5-5.7-5.1-8.4-0.9
		c-2.3,3.6,1.5,5.4,3.9,7.1c18.6,13,37.3,25.8,55.9,38.8c13.4,9.5,12.2,28.5-2.3,35.9c-7.5,3.8-14.9,2.8-21.8-2.1
		c-16-11.3-32-22.7-48-34c-2-1.4-3.9-2.8-5.9-4.2c-2.2-1.5-4.6-2.3-6.4,0.3c-1.7,2.5-0.2,4.5,2,6.1c7,4.9,14,9.9,21,14.9
		c7,5,14.1,9.9,20.9,15.1c8.3,6.4,9.9,18.2,3.9,26.6c-5.5,7.7-17.1,10.3-25.5,4.9c-11.5-7.3-22.6-15.2-33.9-22.9
		c-1.7-1.2-2.8-2-1.9-4.7C246.5,348.2,238.4,335.2,213,332z"/>
	<path class="st3" d="M289.1,111.7c12.2-0.6,22.8,5.3,34.1,7.6c22.8,4.6,45.4,5.9,67.8-1.4c4.5-1.5,7.1-0.8,9.7,3.4
		c15.4,25.1,31.1,50.1,46.7,75.1c5.6,8.9,11.2,17.9,17.1,26.7c2.1,3.2,2.4,4.8-1.1,7.3c-13.7,9.8-28.3,17.7-44,23.9
		c-3.4,1.4-5.9,0.1-8.5-1.7c-39.5-26.5-79-52.9-118.4-79.5c-5.3-3.6-10.3-4.6-16.7-3.6c-10.7,1.7-21.6,1.5-32.2-0.7
		c-6.5-1.4-11,0.9-14.8,5.9c-8,10.4-17.3,19.4-29.5,24.8c-11.8,5.3-23.5,5-34.9-1.3c-8.2-4.6-9.6-10.5-4-17.8
		c8.4-11,16.8-22,25.3-32.9c4.2-5.4,9.6-8.9,16.1-10.9c23.8-7.3,47.5-14.8,71.2-22.1C278.4,112.8,283.7,111.4,289.1,111.7z"/>
	<path class="st3" d="M116.5,356.4c-6.5-0.7-12.6-3.1-16-10c-3.6-7.1-3.3-14.2,1.6-20.5c11.3-14.6,22.8-29,34.3-43.4
		c2.2-2.8,4.5-5.4,6.6-8.2c7.4-9.4,19.1-11.2,27.8-4.4c8.3,6.6,9.4,18.6,2.3,27.7c-6.6,8.5-13.4,16.9-20,25.3
		c-6.3,7.9-12.5,15.8-18.7,23.8C130,352.4,124.7,356.4,116.5,356.4z"/>
	<path class="st3" d="M137.3,361c-0.4-4.2,1.4-8.4,4.3-12.2c10.5-13.3,20.9-26.6,31.6-39.7c7.8-9.6,18.9-10.8,27.9-3.4
		c8.2,6.8,8.7,18.6,1.3,27.8c-10.6,13.2-20.9,26.6-31.6,39.7c-5.6,6.9-13.8,8.6-22.1,5.5C142.3,376.2,137.4,369,137.3,361z"/>
	<path class="st3" d="M90.3,318.5c-8.6,0.1-14.3-3.3-17.8-9.7c-3.7-6.7-3.6-13.8,1.1-19.9c8.1-10.7,16.5-21.1,25.1-31.4
		c6.7-8,17.2-9.2,25.5-3.5c7.9,5.5,10.9,16.7,5.1,25.2c-8.3,12.1-17.4,23.8-27.4,34.6C98.4,317.3,94.1,318.8,90.3,318.5z"/>
	<path class="st3" d="M234.4,358.9c0.3,4.9-1.3,9.4-4.8,13.5c-4.8,5.7-9.1,11.8-14,17.5c-4.9,5.7-11.1,8.6-18.8,6.9
		c-8.1-1.8-13.1-6.9-15-14.9c-1.3-5.2,0-10.1,3-14.4c5.2-7.1,10.5-14.1,16.2-20.8c5.4-6.4,14.4-8.3,22.3-5.3
		C230.3,344.2,234.3,350.4,234.4,358.9z"/>
</g>
</svg>
