<?xml version="1.0" encoding="utf-8"?>
<!-- Generator: Adobe Illustrator 25.0.0, SVG Export Plug-In . SVG Version: 6.00 Build 0)  -->
<svg version="1.1" id="Layer_1" xmlns="http://www.w3.org/2000/svg" xmlns:xlink="http://www.w3.org/1999/xlink" x="0px" y="0px"
	 viewBox="0 0 512 512" style="enable-background:new 0 0 512 512;" xml:space="preserve">
<style type="text/css">
	.st0{fill:#0084FF;}
	.st1{fill:#002A64;}
	.st2{fill:#FFFFFF;}
</style>
<g>
	<path class="st0" d="M511.9,255.9c0,70.8-28.7,134.8-74.9,181C390.8,483.3,326.6,512,256,512c-58.3,0-112.4-19.6-155.4-52.9
		c-0.2-0.2-0.4-0.2-0.7-0.5c-0.2,0-0.2-0.2-0.4-0.5c-0.2,0-0.4-0.2-0.7-0.5c-4.8-3.6-9.4-7.8-13.9-11.9c-4.3-3.8-8.5-8-12.5-12.1
		v-0.2c-0.2-0.2-0.2-0.2-0.4-0.2v-0.1c-2.5-2.3-4.5-4.5-6.6-6.8c-0.2-0.2-0.4-0.5-0.7-0.7C24.6,380.5,0.2,321.1,0.2,255.8
		c0-70.6,28.7-134.5,74.9-181C121.2,28.7,185.4,0,256,0s134.8,28.7,181,74.9C483.2,121.3,511.9,185.3,511.9,255.9z"/>
	<path class="st1" d="M485.5,255.9c0,63.5-25.7,120.9-67.2,162.3c-41.4,41.6-99,67.4-162.3,67.4c-52.3,0-100.9-17.6-139.4-47.4
		c-0.2-0.2-0.4-0.2-0.6-0.5c-0.2,0-0.2-0.2-0.4-0.5c-0.2,0-0.4-0.2-0.6-0.5c-4.3-3.3-8.4-7-12.5-10.7c-3.9-3.4-7.6-7.1-11.2-10.8
		v-0.2c-0.2-0.2-0.2-0.2-0.4-0.2v-0.1c-2.3-2.1-4.1-4.1-6-6.1c-0.2-0.2-0.4-0.5-0.6-0.6c-35.9-40.5-57.8-93.7-57.8-152.3
		c0-63.3,25.7-120.6,67.2-162.3c41.4-41.4,99-67.1,162.3-67.1s120.9,25.7,162.3,67.2C459.8,135.2,485.5,192.6,485.5,255.9z"/>
	<g>
		<g>
			<path class="st2" d="M328.7,279l43.1,137.1l-99.5-71l0.3-0.4l28.7-48.9L140.9,415.3l10.7-37.4c46.3-65.6,153.2-147.3,153.2-147.3
				c-90.5,2-148.9,29.8-148.9,29.8l-87.3-65.1h141.4l45.8-136.7l44.3,136.7l143,0.4L328.7,279z"/>
		</g>
		<path class="st0" d="M140.8,416.1c0,0,46.3-81.6,164.1-185.5c0,0-105.1,37.5-149.3,103.1L140.8,416.1z"/>
	</g>
</g>
</svg>
