<?xml version="1.0" encoding="utf-8"?>
<!-- Generator: Adobe Illustrator 25.0.0, SVG Export Plug-In . SVG Version: 6.00 Build 0)  -->
<svg version="1.1" id="Layer_1" xmlns="http://www.w3.org/2000/svg" xmlns:xlink="http://www.w3.org/1999/xlink" x="0px" y="0px"
	 viewBox="0 0 512 512" style="enable-background:new 0 0 512 512;" xml:space="preserve">
<style type="text/css">
	.st0{fill:#0090FF;}
	.st1{fill:#34A853;}
	.st2{fill:#FBBC05;}
	.st3{fill:#EB4335;}
	.st4{fill:#C4C4C4;}
</style>
<g>
	<g>
		<path class="st0" d="M354.42,258.23c0-8.26-0.67-14.28-2.12-20.53h-94.29v37.27h55.35c-1.12,9.26-7.14,23.21-20.53,32.58
			l-0.19,1.25l29.81,23.1l2.07,0.21C343.48,314.58,354.42,288.81,354.42,258.23"/>
		<path class="st1" d="M258.01,356.43c27.12,0,49.88-8.93,66.51-24.33l-31.69-24.55c-8.48,5.91-19.86,10.04-34.82,10.04
			c-26.56,0-49.1-17.52-57.13-41.73l-1.18,0.1l-31,23.99l-0.41,1.13C184.8,333.89,218.73,356.43,258.01,356.43"/>
		<path class="st2" d="M200.87,275.86c-2.12-6.25-3.35-12.94-3.35-19.86c0-6.92,1.23-13.61,3.24-19.86l-0.06-1.33l-31.39-24.38
			l-1.03,0.49c-6.81,13.61-10.71,28.9-10.71,45.08s3.91,31.47,10.71,45.08L200.87,275.86"/>
		<path class="st3" d="M258.01,194.4c18.86,0,31.58,8.15,38.83,14.95l28.34-27.67c-17.41-16.18-40.06-26.11-67.18-26.11
			c-39.28,0-73.2,22.54-89.72,55.35l32.47,25.22C208.91,211.92,231.45,194.4,258.01,194.4"/>
	</g>
	<g>
		<path class="st4" d="M372.32,423.24H139.68c-28.07,0-50.92-22.84-50.92-50.92V139.68c0-28.07,22.84-50.92,50.92-50.92h232.64
			c28.08,0,50.92,22.84,50.92,50.92v232.64C423.24,400.39,400.39,423.24,372.32,423.24z M139.68,95.7
			c-24.25,0-43.98,19.73-43.98,43.98v232.64c0,24.25,19.73,43.98,43.98,43.98h232.64c24.25,0,43.98-19.73,43.98-43.98V139.68
			c0-24.25-19.73-43.98-43.98-43.98H139.68z"/>
	</g>
</g>
</svg>
