<?xml version="1.0" encoding="utf-8"?>
<!-- Generator: Adobe Illustrator 25.0.0, SVG Export Plug-In . SVG Version: 6.00 Build 0)  -->
<svg version="1.1" id="Layer_1" xmlns="http://www.w3.org/2000/svg" xmlns:xlink="http://www.w3.org/1999/xlink" x="0px" y="0px"
	 viewBox="0 0 512 512" style="enable-background:new 0 0 512 512;" xml:space="preserve">
<style type="text/css">
	.st0{display:none;}
	.st1{display:inline;}
	.st2{fill:#FFFFFF;}
	.st3{fill:#F2F2F2;}
	.st4{fill:#FF4930;}
	.st5{fill:#D8D8D8;}
	.st6{fill:#0080FF;}
</style>
<g class="st0">
	<g class="st1">
		<path class="st2" d="M425.2,426.9H86.8c-1,0-1.7-0.8-1.7-1.7V86.8c0-1,0.8-1.7,1.7-1.7h338.3c1,0,1.7,0.8,1.7,1.7v338.3
			C426.9,426.1,426.1,426.9,425.2,426.9z"/>
		<path class="st3" d="M402.6,430.4H109.4c-15.3,0-27.8-12.5-27.8-27.8V109.4c0-15.3,12.5-27.8,27.8-27.8h293.2
			c15.3,0,27.8,12.5,27.8,27.8v293.2C430.4,417.9,417.9,430.4,402.6,430.4z M109.4,88.6c-11.4,0-20.8,9.3-20.8,20.8v293.2
			c0,11.4,9.3,20.8,20.8,20.8h293.2c11.4,0,20.8-9.3,20.8-20.8V109.4c0-11.4-9.3-20.8-20.8-20.8C402.6,88.6,109.4,88.6,109.4,88.6z"
			/>
	</g>
	<g class="st1">
		<path class="st4" d="M166.2,228.7c9.7,0,18-3.1,25-10.3c7.2-7,10.3-15.3,10.3-25s-3.1-18-10.3-25c-7-7.2-15.3-10.3-25-10.3
			s-18,3.1-25,10.3c-7.2,7-10.3,15.3-10.3,25s3.1,18,10.3,25C148.2,225.6,156.5,228.7,166.2,228.7z"/>
		<path class="st4" d="M314.3,181.4l-94.7,123.4L190,266.2l-59.2,76.4v23.8c0,12.3,10,22.3,22.3,22.3h215.3
			c12.3,0,22.3-10,22.3-22.3v-85.1L314.3,181.4z"/>
	</g>
</g>
<g>
	<g>
		<path class="st5" d="M402.6,430.4H109.4c-15.3,0-27.8-12.5-27.8-27.8V109.4c0-15.3,12.5-27.8,27.8-27.8h293.2
			c15.3,0,27.8,12.5,27.8,27.8v293.2C430.4,417.9,417.9,430.4,402.6,430.4z M109.4,88.6c-11.4,0-20.8,9.3-20.8,20.8v293.2
			c0,11.4,9.3,20.8,20.8,20.8h293.2c11.4,0,20.8-9.3,20.8-20.8V109.4c0-11.4-9.3-20.8-20.8-20.8C402.6,88.6,109.4,88.6,109.4,88.6z"
			/>
	</g>
</g>
<g>
	<path class="st6" d="M150.4,149.4V239H240v-89.7H150.4z M211.8,210.8h-33.2v-33.2h33.2V210.8z"/>
	<path class="st6" d="M150.3,273.1v89.7H240v-89.7H150.3z M211.7,334.5h-33.2v-33.2h33.2V334.5z"/>
	<path class="st6" d="M271.9,148.6v89.7h89.7v-89.7H271.9z M333.3,210.1h-33.2v-33.2h33.2V210.1z"/>
	<rect x="274.6" y="273.1" class="st6" width="29.1" height="29.1"/>
	<rect x="304.7" y="304" class="st6" width="29.1" height="29.1"/>
	<rect x="332.6" y="273.1" class="st6" width="29.1" height="29.1"/>
	<rect x="274.6" y="333.9" class="st6" width="29.1" height="29.1"/>
	<rect x="332.6" y="333.9" class="st6" width="29.1" height="29.1"/>
</g>
</svg>
