<svg id="Layer_1" data-name="Layer 1" xmlns="http://www.w3.org/2000/svg" viewBox="0 0 409.51 409.75"><defs><style>.cls-1{fill:#fff;}.cls-2{fill:#0084ff;}</style></defs><path class="cls-1" d="M460.75,255.92A204.61,204.61,0,0,1,131.57,418.58c-.16-.16-.32-.16-.56-.41-.17,0-.17-.16-.33-.4-.16,0-.32-.16-.56-.4-3.87-2.9-7.49-6.2-11.12-9.51-3.46-3.06-6.77-6.36-10-9.66V398c-.16-.16-.16-.16-.32-.16v-.08c-2-1.85-3.63-3.62-5.32-5.48a3.7,3.7,0,0,0-.56-.56A204.78,204.78,0,1,1,460.75,255.92Z" transform="translate(-51.25 -51.13)"/><path d="M423.32,255.93a167.2,167.2,0,0,1-269,132.93c-.13-.14-.27-.14-.46-.33-.14,0-.14-.13-.27-.33-.13,0-.26-.13-.46-.33-3.16-2.37-6.12-5.07-9.08-7.77-2.83-2.5-5.53-5.2-8.17-7.9v-.13c-.13-.13-.13-.13-.26-.13v-.07c-1.65-1.51-3-3-4.35-4.48a2.85,2.85,0,0,0-.46-.46,167.34,167.34,0,1,1,292.51-111Z" transform="translate(-51.25 -51.13)"/><path class="cls-1" d="M309.69,274.57l31.86,101.25-73.47-52.47.2-.26,21.2-36.15L171,375.23l7.9-27.65C213,299.12,292,238.75,292,238.75c-66.82,1.52-110,22-110,22l-64.45-48.13H222.06l33.84-101,32.72,101,105.67.27Z" transform="translate(-51.25 -51.13)"/><path class="cls-2" d="M170.84,375.82s34.17-60.3,121.2-137c0,0-77.62,27.71-110.27,76.17Z" transform="translate(-51.25 -51.13)"/></svg>