<?xml version="1.0" encoding="utf-8"?>
<!-- Generator: Adobe Illustrator 25.0.0, SVG Export Plug-In . SVG Version: 6.00 Build 0)  -->
<svg version="1.1" id="Layer_1" xmlns="http://www.w3.org/2000/svg" xmlns:xlink="http://www.w3.org/1999/xlink" x="0px" y="0px"
	 viewBox="0 0 512 512" style="enable-background:new 0 0 512 512;" xml:space="preserve">
<style type="text/css">
	.st0{fill:#C4C4C4;}
	.st1{fill:#F40000;}
	.st2{fill:#990013;}
	.st3{fill:#038DF4;}
	.st4{fill:#0050A8;}
</style>
<g>
	<g>
		<path class="st0" d="M372.32,423.24H139.68c-28.07,0-50.92-22.84-50.92-50.92V139.68c0-28.07,22.84-50.92,50.92-50.92h232.64
			c28.08,0,50.92,22.84,50.92,50.92v232.64C423.24,400.39,400.39,423.24,372.32,423.24z M139.68,95.7
			c-24.25,0-43.98,19.73-43.98,43.98v232.64c0,24.25,19.73,43.98,43.98,43.98h232.64c24.25,0,43.98-19.73,43.98-43.98V139.68
			c0-24.25-19.73-43.98-43.98-43.98H139.68z"/>
	</g>
</g>
<g>
	<g>
		<polygon class="st1" points="249.17,188.27 205.07,218.37 178.55,195.9 233.25,157.61 249.07,168.76 		"/>
		<polygon class="st2" points="198.52,243.79 198.42,295.52 170.62,314.58 170.5,314.65 170.5,220 		"/>
		<polygon class="st1" points="299.96,244.87 299.96,277.14 248.5,312.18 248.5,350.34 234.7,359.46 170.62,314.58 198.42,295.52 
			211.03,304.43 		"/>
	</g>
	<g>
		<polygon class="st3" points="342.78,321.65 288.12,359.92 272.08,348.61 271.98,329.05 316.04,298.96 		"/>
		<polygon class="st4" points="350.65,202.72 350.65,297.37 322.63,273.58 322.73,221.85 350.37,202.91 		"/>
		<polygon class="st3" points="286.27,158.03 350.37,202.91 322.73,221.85 310.12,212.94 221.19,272.52 221.19,240.23 272.65,205.2 
			272.65,167.03 		"/>
	</g>
</g>
</svg>
