<?xml version="1.0" encoding="utf-8"?>
<!-- Generator: Adobe Illustrator 25.0.0, SVG Export Plug-In . SVG Version: 6.00 Build 0)  -->
<svg version="1.1" id="Layer_1" xmlns="http://www.w3.org/2000/svg" xmlns:xlink="http://www.w3.org/1999/xlink" x="0px" y="0px"
	 viewBox="0 0 512 512" style="enable-background:new 0 0 512 512;" xml:space="preserve">
<style type="text/css">
	.st0{fill:#C4C4C4;}
	.st1{fill:#E82127;}
</style>
<g>
	<g>
		<path class="st0" d="M372.32,423.24H139.68c-28.07,0-50.92-22.84-50.92-50.92V139.68c0-28.07,22.84-50.92,50.92-50.92h232.64
			c28.08,0,50.92,22.84,50.92,50.92v232.64C423.24,400.39,400.39,423.24,372.32,423.24z M139.68,95.7
			c-24.25,0-43.98,19.73-43.98,43.98v232.64c0,24.25,19.73,43.98,43.98,43.98h232.64c24.25,0,43.98-19.73,43.98-43.98V139.68
			c0-24.25-19.73-43.98-43.98-43.98H139.68z"/>
	</g>
</g>
<path class="st1" d="M256.01,374.83l31.23-175.6c29.76,0,39.15,3.26,40.5,16.57c0,0,19.96-7.5,30.03-22.56
	c-39.29-18.21-78.78-19.1-78.78-19.1l-23.04,28.06h0.05l-23.04-28.06c0,0-39.56,0.82-78.78,19.1
	c10.06,15.12,30.03,22.56,30.03,22.56c1.36-13.32,10.74-16.59,40.24-16.61L256,374.83 M255.99,166.12
	c31.76-0.25,68.12,4.91,105.34,21.14c4.98-8.96,6.25-12.91,6.25-12.91c-40.69-16.1-78.78-21.61-111.59-21.74
	c-32.74,0.14-70.91,5.65-111.59,21.74c0,0,1.81,4.88,6.25,12.91C187.87,171.04,224.24,165.89,255.99,166.12"/>
</svg>
