<?xml version="1.0" encoding="utf-8"?>
<!-- Generator: Adobe Illustrator 25.0.0, SVG Export Plug-In . SVG Version: 6.00 Build 0)  -->
<svg version="1.1" id="Layer_1" xmlns="http://www.w3.org/2000/svg" xmlns:xlink="http://www.w3.org/1999/xlink" x="0px" y="0px"
	 viewBox="0 0 512 512" style="enable-background:new 0 0 512 512;" xml:space="preserve">
<style type="text/css">
	.st0{fill:#FFFFFF;}
	.st1{fill:#05AFFE;}
</style>
<g>
	<path d="M507.4,256.1c0,69.4-28.1,132.2-73.5,177.5c-45.3,45.5-108.3,73.7-177.5,73.7c-57.2,0-110.3-19.2-152.5-51.8
		c-0.2-0.2-0.4-0.2-0.7-0.5c-0.2,0-0.2-0.2-0.4-0.5c-0.2,0-0.4-0.2-0.7-0.5c-4.7-3.6-9.2-7.6-13.6-11.6c-4.2-3.8-8.3-7.8-12.3-11.8
		v-0.2c-0.2-0.2-0.2-0.2-0.4-0.2V430c-2.5-2.2-4.5-4.5-6.5-6.7c-0.2-0.2-0.4-0.5-0.7-0.7C29.3,378.5,5.4,320.2,5.4,256.1
		c0-69.2,28.1-131.9,73.5-177.5C124.2,33.3,187.2,5.2,256.4,5.2s132.2,28.1,177.5,73.4C479.2,124.2,507.4,186.9,507.4,256.1z"/>
	<g>
		<g>
			<path class="st0" d="M326.7,278.2l41.7,132.5L272.2,342l0.3-0.3l27.7-47.3l-155,115.5l10.3-36.1
				c44.7-63.4,148.1-142.4,148.1-142.4c-87.5,2-144,28.8-144,28.8l-84.3-63h136.7L256.3,65l42.9,132.2l138.3,0.3L326.7,278.2z"/>
		</g>
		<path class="st1" d="M145,410.7c0,0,44.7-78.9,158.6-179.3c0,0-101.6,36.3-144.3,99.6L145,410.7z"/>
	</g>
</g>
</svg>
